<?xml version="1.0" encoding="UTF-8"?>
<svg width="102px" height="60px" viewBox="0 0 102 60" version="1.1" xmlns="http://www.w3.org/2000/svg" xmlns:xlink="http://www.w3.org/1999/xlink">
    <!-- Generator: Sketch 46.2 (44496) - http://www.bohemiancoding.com/sketch -->
    <title>logo_original@3x</title>
    <desc>Created with Sketch.</desc>
    <defs>
        <polygon id="path-1" points="14.4687434 21.7411765 0.00766849245 21.7411765 0.00766849245 0.208647739 14.4687434 0.208647739"></polygon>
        <polygon id="path-3" points="1.49989539e-15 6.28956028 1.49989539e-15 0.049301519 15.4492088 0.049301519 15.4492088 6.28956028"></polygon>
        <polygon id="path-5" points="0.0889062764 0.0161229147 32.5691462 0.0161229147 32.5691462 44.306962 0.0889062764 44.306962"></polygon>
    </defs>
    <g id="Symbols" stroke="none" stroke-width="1" fill="none" fill-rule="evenodd">
        <g id="header_notsignedin" transform="translate(-35.000000, -15.000000)">
            <g id="logo_original">
                <g transform="translate(35.000000, 14.000000)">
                    <path d="M3.95604785,58.4049521 C3.95604785,58.2829301 3.93807448,58.1740825 3.9021272,58.0784062 C3.86617992,57.9827298 3.80050799,57.8946811 3.70510944,57.8142575 C3.60971089,57.7338339 3.47836702,57.656878 3.31107391,57.5833875 C3.14378079,57.5098969 2.92879163,57.432941 2.66609996,57.3525174 C2.37852171,57.2665473 2.11306885,57.1680992 1.86973341,57.0571701 C1.62639797,56.946241 1.41693908,56.8172879 1.24135044,56.6703068 C1.06576179,56.5233257 0.92819638,56.3541614 0.828650064,56.1628086 C0.729103748,55.9714559 0.679331336,55.7523742 0.679331336,55.5055569 C0.679331336,55.2615129 0.731177598,55.0368848 0.834871677,54.8316659 C0.938565756,54.6264471 1.08442657,54.4489632 1.2724585,54.2992089 C1.46049043,54.1494546 1.68584885,54.0329808 1.94854052,53.9497839 C2.21123219,53.8665871 2.50157125,53.8249893 2.81956643,53.8249893 C3.15968301,53.8249893 3.46523031,53.8742134 3.73621751,53.9726629 C4.0072047,54.0711125 4.23601954,54.2049188 4.42266888,54.3740857 C4.60931822,54.5432525 4.7524139,54.7394555 4.85196022,54.9627003 C4.95150654,55.1859451 5.00127895,55.4237459 5.00127895,55.6761096 L3.95604785,55.6761096 C3.95604785,55.5291285 3.9332355,55.3939357 3.8876101,55.2705271 C3.84198471,55.1471184 3.77216508,55.0403507 3.67814911,54.9502208 C3.58413315,54.8600909 3.46523239,54.790068 3.32144326,54.7401499 C3.17765414,54.6902318 3.0075984,54.6652731 2.81127094,54.6652731 C2.62600419,54.6652731 2.46562642,54.686072 2.33013282,54.7276704 C2.19463923,54.7692688 2.08196002,54.8275058 1.99209181,54.9023829 C1.90222361,54.9772601 1.8358604,55.066002 1.79300018,55.1686114 C1.75013996,55.2712209 1.72871017,55.3821483 1.72871017,55.5013971 C1.72871017,55.7260286 1.83447654,55.9132186 2.04601247,56.0629729 C2.25754839,56.2127272 2.58037778,56.3513865 3.01451032,56.478955 C3.3546269,56.5787912 3.64911367,56.6897187 3.89797946,56.8117407 C4.14684525,56.9337627 4.35353902,57.0717287 4.51806695,57.2256429 C4.68259489,57.379557 4.80495207,57.5528811 4.88514216,57.7456205 C4.96533225,57.9383598 5.00542669,58.1553616 5.00542669,58.3966324 C5.00542669,58.6517694 4.95496299,58.8812506 4.85403409,59.0850828 C4.75310519,59.288915 4.60931822,59.4622392 4.42266888,59.6050604 C4.23601954,59.7478816 4.00996983,59.8574225 3.74451299,59.9336863 C3.47905615,60.00995 3.18318681,60.0480813 2.85689611,60.0480813 C2.56655269,60.0480813 2.28036132,60.0085634 1.99831343,59.9295264 C1.71626553,59.8504895 1.46325578,59.7312424 1.23927656,59.5717819 C1.01529735,59.4123213 0.834872362,59.2133451 0.697996177,58.9748476 C0.561119993,58.73635 0.492682927,58.4562582 0.492682927,58.1345637 L1.54206176,58.1345637 C1.54206176,58.3259165 1.57593465,58.4902277 1.64368145,58.6275025 C1.71142825,58.7647773 1.80406024,58.8770913 1.92158019,58.964448 C2.03910015,59.0518047 2.17804813,59.115588 2.33842831,59.1557998 C2.49880848,59.1960116 2.67162936,59.2161172 2.85689611,59.2161172 C3.22189927,59.2161172 3.49633882,59.1419344 3.68022298,58.9935667 C3.86410715,58.8451991 3.95604785,58.6489961 3.95604785,58.4049521 Z M10.9818628,57.0946085 C10.9818628,57.5549643 10.9217211,57.9674758 10.801436,58.3321552 C10.6811508,58.6968347 10.5117864,59.0060449 10.2933375,59.2597953 C10.0748887,59.5135456 9.81220094,59.708362 9.50526646,59.8442501 C9.19833199,59.9801383 8.85822051,60.0480813 8.48492183,60.0480813 C8.11438832,60.0480813 7.77565941,59.9801383 7.46872493,59.8442501 C7.16179046,59.708362 6.89702888,59.5135456 6.67443226,59.2597953 C6.45183563,59.0060449 6.27901476,58.6968347 6.15596445,58.3321552 C6.03291415,57.9674758 5.97138991,57.5549643 5.97138991,57.0946085 L5.97138991,56.7867818 C5.97138991,56.326426 6.03291415,55.9132212 6.15596445,55.5471551 C6.27901476,55.1810891 6.45045307,54.8704922 6.67028451,54.6153553 C6.89011596,54.3602183 7.15349497,54.1647087 7.46042945,54.0288205 C7.76736392,53.8929324 8.10609283,53.8249893 8.47662634,53.8249893 C8.84992503,53.8249893 9.19072779,53.8929324 9.49904485,54.0288205 C9.80736191,54.1647087 10.0714322,54.3602183 10.2912637,54.6153553 C10.5110951,54.8704922 10.6811508,55.1810891 10.801436,55.5471551 C10.9217211,55.9132212 10.9818628,56.326426 10.9818628,56.7867818 L10.9818628,57.0946085 Z M9.93248393,56.7784621 C9.93248393,56.4401283 9.89999361,56.1413175 9.83501199,55.8820207 C9.77003036,55.6227239 9.67532453,55.4057221 9.55089163,55.2310088 C9.42645874,55.0562954 9.27368508,54.9238758 9.09256609,54.8337459 C8.9114471,54.743616 8.7061359,54.6985517 8.47662634,54.6985517 C8.25264713,54.6985517 8.05079235,54.743616 7.87105595,54.8337459 C7.69131954,54.9238758 7.53854589,55.0562954 7.41273041,55.2310088 C7.28691493,55.4057221 7.19013524,55.6227239 7.12238844,55.8820207 C7.05464164,56.1413175 7.02076875,56.4401283 7.02076875,56.7784621 L7.02076875,57.0946085 C7.02076875,57.4329423 7.05464164,57.7324464 7.12238844,57.9931298 C7.19013524,58.2538132 7.28760621,58.4722016 7.41480428,58.6483016 C7.54200235,58.8244016 7.69615857,58.9575145 7.87727756,59.0476444 C8.05839655,59.1377743 8.26094262,59.1828386 8.48492183,59.1828386 C8.9494713,59.1828386 9.30686487,59.0053547 9.55711324,58.6503815 C9.80736162,58.2954084 9.93248393,57.7768225 9.93248393,57.0946085 L9.93248393,56.7784621 Z M8.14895469,52.6103216 L8.81674122,52.6103216 L10.0237343,53.6502768 L9.14441287,53.6502768 L8.48492183,53.0595823 L7.82543078,53.6502768 L6.94196164,53.6502768 L8.14895469,52.6103216 Z M10.3389627,51.8823529 L11.2597615,51.8823529 L10.3638491,52.9930251 L9.71265359,52.9930251 L10.3389627,51.8823529 Z M17.0536969,59.9648849 L16.0043181,59.9648849 L13.3124333,55.6677899 L13.3124333,59.9648849 L12.2630544,59.9648849 L12.2630544,53.9081857 L13.3124333,53.9081857 L16.0126136,58.22192 L16.0126136,53.9081857 L17.0536969,53.9081857 L17.0536969,59.9648849 Z M23.158713,59.1786788 C23.095114,59.2618756 23.0066297,59.3540841 22.8932575,59.4553069 C22.7798853,59.5565297 22.6340245,59.650818 22.4556707,59.7381747 C22.2773169,59.8255314 22.063019,59.8990208 21.8127706,59.9586452 C21.5625222,60.0182696 21.2687267,60.0480813 20.9313753,60.0480813 C20.5525463,60.0480813 20.2048307,59.9829115 19.8882181,59.8525698 C19.5716055,59.7222281 19.2999311,59.5336514 19.0731867,59.2868341 C18.8464423,59.0400168 18.670165,58.736353 18.5443496,58.3758333 C18.4185341,58.0153137 18.3556273,57.6034956 18.3556273,57.1403665 L18.3556273,56.7410237 C18.3556273,56.2806679 18.4123125,55.8695431 18.5256847,55.5076368 C18.6390569,55.1457306 18.8021998,54.8399868 19.0151183,54.5903963 C19.2280368,54.3408058 19.4879594,54.1508426 19.7948939,54.0205009 C20.1018284,53.8901592 20.4502353,53.8249893 20.840125,53.8249893 C21.2078933,53.8249893 21.5286489,53.8728268 21.8024012,53.9685031 C22.0761536,54.0641795 22.3070423,54.1979857 22.4950742,54.3699258 C22.6831062,54.541866 22.8310408,54.7463884 22.9388827,54.9834994 C23.0467245,55.2206104 23.118618,55.4805966 23.1545653,55.7634658 L22.1259252,55.7634658 C22.1010386,55.6053918 22.0595616,55.4597996 22.0014929,55.3266846 C21.9434242,55.1935697 21.8639266,55.0784825 21.7629977,54.9814195 C21.6620688,54.8843565 21.5376378,54.8080939 21.3897009,54.7526294 C21.241764,54.6971648 21.0654867,54.6694329 20.8608637,54.6694329 C20.6147631,54.6694329 20.4011565,54.7151905 20.2200375,54.806707 C20.0389185,54.8982235 19.8882187,55.0320298 19.7679336,55.2081297 C19.6476485,55.3842297 19.5577816,55.6005382 19.4983303,55.8570618 C19.4388791,56.1135854 19.4091539,56.4054632 19.4091539,56.7327041 L19.4091539,57.1403665 C19.4091539,57.4731539 19.4451006,57.7678049 19.5169952,58.0243285 C19.5888897,58.2808521 19.691891,58.4964673 19.826002,58.6711806 C19.960113,58.845894 20.1232559,58.9790069 20.3154356,59.0705234 C20.5076153,59.16204 20.7253696,59.2077975 20.968705,59.2077975 C21.1484414,59.2077975 21.3025976,59.1960115 21.4311783,59.172439 C21.559759,59.1488666 21.6682905,59.1190549 21.7567761,59.0830029 C21.8452617,59.0469509 21.9178465,59.007433 21.9745326,58.964448 C22.0312187,58.921463 22.0775346,58.8805585 22.1134819,58.8417333 L22.1134819,57.6561843 L20.8691592,57.6561843 L20.8691592,56.8574987 L23.158713,56.8574987 L23.158713,59.1786788 Z M31.507197,57.9931298 C31.4795453,58.2898652 31.4104169,58.5637173 31.2998099,58.8146944 C31.1892029,59.0656716 31.0357379,59.2826734 30.8394105,59.4657064 C30.643083,59.6487395 30.4032076,59.7915585 30.1197772,59.894168 C29.8363467,59.9967774 29.5093696,60.0480813 29.1388361,60.0480813 C28.7683026,60.0480813 28.4330301,59.9808316 28.1330085,59.84633 C27.832987,59.7118285 27.5772121,59.5204786 27.3656762,59.2722747 C27.1541403,59.0240709 26.9916886,58.7238735 26.8783165,58.3716735 C26.7649443,58.0194736 26.708259,57.6242946 26.708259,57.1861246 L26.708259,56.6952657 C26.708259,56.2598689 26.7663268,55.8653832 26.8824642,55.5117967 C26.9986016,55.1582101 27.1645096,54.8566261 27.3801933,54.6070356 C27.595877,54.3574451 27.8564909,54.1647087 28.1620427,54.0288205 C28.4675946,53.8929324 28.80978,53.8249893 29.188609,53.8249893 C29.5480818,53.8249893 29.8660722,53.8769865 30.1425897,53.9809826 C30.4191073,54.0849786 30.6534524,54.2291843 30.8456321,54.413604 C31.0378118,54.5980236 31.1885116,54.8177986 31.297736,55.0729356 C31.4069604,55.3280725 31.4767801,55.6067777 31.507197,55.9090596 L30.4619659,55.9090596 C30.4398445,55.7177068 30.4018239,55.5457693 30.347903,55.3932418 C30.2939821,55.2407142 30.2172496,55.1110678 30.1177033,55.0042985 C30.018157,54.8975292 29.8923434,54.8164136 29.7402587,54.760949 C29.5881741,54.7054844 29.4042927,54.6777526 29.188609,54.6777526 C28.9508039,54.6777526 28.7427276,54.7228169 28.5643738,54.8129468 C28.3860199,54.9030767 28.237394,55.0334164 28.1184914,55.2039699 C27.9995889,55.3745234 27.9104133,55.5845923 27.8509621,55.8341828 C27.7915108,56.0837733 27.7617856,56.3680249 27.7617856,56.6869461 L27.7617856,57.1861246 C27.7617856,57.4884064 27.7880544,57.7629518 27.8405927,58.0097691 C27.893131,58.2565864 27.9747025,58.4680418 28.0853095,58.6441418 C28.1959165,58.8202418 28.3383209,58.9568212 28.512527,59.0538841 C28.686733,59.1509471 28.8955006,59.1994779 29.1388361,59.1994779 C29.3655805,59.1994779 29.557066,59.1731326 29.7132984,59.1204413 C29.8695308,59.06775 29.9988008,58.9901007 30.1011123,58.8874913 C30.2034238,58.7848819 30.2829214,58.6587019 30.3396075,58.5089476 C30.3962936,58.3591933 30.4370793,58.1872558 30.4619659,57.9931298 L31.507197,57.9931298 Z M37.4753376,59.9648849 L36.4301065,59.9648849 L36.4301065,57.2734808 L33.7299262,57.2734808 L33.7299262,59.9648849 L32.6805474,59.9648849 L32.6805474,53.9081857 L33.7299262,53.9081857 L33.7299262,56.4290372 L36.4301065,56.4290372 L36.4301065,53.9081857 L37.4753376,53.9081857 L37.4753376,59.9648849 Z M42.4065426,58.5547056 L40.0672159,58.5547056 L39.5777823,59.9648849 L38.486926,59.9648849 L40.7681843,53.9081857 L41.7097219,53.9081857 L43.9951279,59.9648849 L42.9001239,59.9648849 L42.4065426,58.5547056 Z M40.3617056,57.7061022 L42.1120529,57.7061022 L41.2368792,55.1935704 L40.3617056,57.7061022 Z M40.9175031,52.6103216 L41.5852896,52.6103216 L42.7922826,53.6502768 L41.9129612,53.6502768 L41.2534702,53.0595823 L40.5939791,53.6502768 L39.71051,53.6502768 L40.9175031,52.6103216 Z M43.1075111,51.8823529 L44.0283099,51.8823529 L43.1323975,52.9930251 L42.481202,52.9930251 L43.1075111,51.8823529 Z M48.7811619,54.7567892 L46.8980869,54.7567892 L46.8980869,59.9648849 L45.8570035,59.9648849 L45.8570035,54.7567892 L43.9905194,54.7567892 L43.9905194,53.9081857 L48.7811619,53.9081857 L48.7811619,54.7567892 Z M53.7699746,57.7976182 L51.5924098,57.7976182 L51.5924098,56.9822933 L53.7699746,56.9822933 L53.7699746,57.7976182 Z M61.4008991,54.7567892 L59.517824,54.7567892 L59.517824,59.9648849 L58.4767407,59.9648849 L58.4767407,54.7567892 L56.6102566,54.7567892 L56.6102566,53.9081857 L61.4008991,53.9081857 L61.4008991,54.7567892 Z M63.5365257,59.9648849 L62.4912946,59.9648849 L62.4912946,53.9081857 L63.5365257,53.9081857 L63.5365257,59.9648849 Z M68.592163,57.2610013 L66.111813,57.2610013 L66.111813,59.1246011 L69.0110849,59.1246011 L69.0110849,59.9648849 L65.0624341,59.9648849 L65.0624341,53.9081857 L68.9820507,53.9081857 L68.9820507,54.7567892 L66.111813,54.7567892 L66.111813,56.4290372 L68.592163,56.4290372 L68.592163,57.2610013 Z M68.4760262,53.4090072 L68.4760262,53.4547652 L67.6672164,53.4547652 L67.045055,52.8058332 L66.4270414,53.4547652 L65.6265271,53.4547652 L65.6265271,53.4006876 L66.7505653,52.252577 L67.3436925,52.252577 L68.4760262,53.4090072 Z M74.5188261,53.9081857 L74.5188261,57.9598513 C74.5188261,58.3065047 74.460067,58.6101686 74.3425471,58.870852 C74.2250271,59.1315354 74.0639581,59.3492306 73.8593351,59.5239439 C73.6547121,59.6986573 73.415528,59.8296903 73.1417756,59.917047 C72.8680233,60.0044037 72.5749191,60.0480813 72.2624542,60.0480813 C71.9389287,60.0480813 71.639603,60.0044037 71.364468,59.917047 C71.0893331,59.8296903 70.8508402,59.6986573 70.6489824,59.5239439 C70.4471246,59.3492306 70.289512,59.1315354 70.1761398,58.870852 C70.0627676,58.6101686 70.0060824,58.3065047 70.0060824,57.9598513 L70.0060824,53.9081857 L71.0513135,53.9081857 L71.0513135,57.9598513 C71.0513135,58.176163 71.0796561,58.3626598 71.1363422,58.5193472 C71.1930283,58.6760345 71.2739084,58.805681 71.3789851,58.9082904 C71.4840618,59.0108998 71.6112579,59.0864692 71.7605774,59.1350007 C71.9098969,59.1835321 72.0771875,59.2077975 72.2624542,59.2077975 C72.447721,59.2077975 72.6157029,59.1835321 72.766405,59.1350007 C72.917107,59.0864692 73.0443032,59.0108998 73.1479973,58.9082904 C73.2516913,58.805681 73.3318802,58.6760345 73.3885663,58.5193472 C73.4452524,58.3626598 73.473595,58.176163 73.473595,57.9598513 L73.473595,53.9081857 L74.5188261,53.9081857 Z M81.3824183,58.4049521 C81.3824183,58.2829301 81.364445,58.1740825 81.3284977,58.0784062 C81.2925504,57.9827298 81.2268785,57.8946811 81.1314799,57.8142575 C81.0360814,57.7338339 80.9047375,57.656878 80.7374444,57.5833875 C80.5701513,57.5098969 80.3551621,57.432941 80.0924704,57.3525174 C79.8048922,57.2665473 79.5394393,57.1680992 79.2961039,57.0571701 C79.0527684,56.946241 78.8433095,56.8172879 78.6677209,56.6703068 C78.4921323,56.5233257 78.3545668,56.3541614 78.2550205,56.1628086 C78.1554742,55.9714559 78.1057018,55.7523742 78.1057018,55.5055569 C78.1057018,55.2615129 78.1575481,55.0368848 78.2612421,54.8316659 C78.3649362,54.6264471 78.510797,54.4489632 78.698829,54.2992089 C78.8868609,54.1494546 79.1122193,54.0329808 79.374911,53.9497839 C79.6376027,53.8665871 79.9279417,53.8249893 80.2459369,53.8249893 C80.5860535,53.8249893 80.8916008,53.8742134 81.162588,53.9726629 C81.4335752,54.0711125 81.66239,54.2049188 81.8490393,54.3740857 C82.0356887,54.5432525 82.1787844,54.7394555 82.2783307,54.9627003 C82.377877,55.1859451 82.4276494,55.4237459 82.4276494,55.6761096 L81.3824183,55.6761096 C81.3824183,55.5291285 81.359606,55.3939357 81.3139806,55.2705271 C81.2683552,55.1471184 81.1985355,55.0403507 81.1045196,54.9502208 C81.0105036,54.8600909 80.8916029,54.790068 80.7478137,54.7401499 C80.6040246,54.6902318 80.4339689,54.6652731 80.2376414,54.6652731 C80.0523747,54.6652731 79.8919969,54.686072 79.7565033,54.7276704 C79.6210097,54.7692688 79.5083305,54.8275058 79.4184623,54.9023829 C79.3285941,54.9772601 79.2622309,55.066002 79.2193706,55.1686114 C79.1765104,55.2712209 79.1550806,55.3821483 79.1550806,55.5013971 C79.1550806,55.7260286 79.260847,55.9132186 79.4723829,56.0629729 C79.6839189,56.2127272 80.0067482,56.3513865 80.4408808,56.478955 C80.7809974,56.5787912 81.0754841,56.6897187 81.3243499,56.8117407 C81.5732157,56.9337627 81.7799095,57.0717287 81.9444374,57.2256429 C82.1089654,57.379557 82.2313225,57.5528811 82.3115126,57.7456205 C82.3917027,57.9383598 82.4317972,58.1553616 82.4317972,58.3966324 C82.4317972,58.6517694 82.3813335,58.8812506 82.2804046,59.0850828 C82.1794757,59.288915 82.0356887,59.4622392 81.8490393,59.6050604 C81.66239,59.7478816 81.4363403,59.8574225 81.1708835,59.9336863 C80.9054266,60.00995 80.6095573,60.0480813 80.2832666,60.0480813 C79.9929232,60.0480813 79.7067318,60.0085634 79.4246839,59.9295264 C79.142636,59.8504895 78.8896262,59.7312424 78.665647,59.5717819 C78.4416678,59.4123213 78.2612428,59.2133451 78.1243666,58.9748476 C77.9874905,58.73635 77.9190534,58.4562582 77.9190534,58.1345637 L78.9684322,58.1345637 C78.9684322,58.3259165 79.0023051,58.4902277 79.0700519,58.6275025 C79.1377987,58.7647773 79.2304307,58.8770913 79.3479507,58.964448 C79.4654706,59.0518047 79.6044186,59.115588 79.7647988,59.1557998 C79.925179,59.1960116 80.0979998,59.2161172 80.2832666,59.2161172 C80.6482697,59.2161172 80.9227093,59.1419344 81.1065935,58.9935667 C81.2904776,58.8451991 81.3824183,58.6489961 81.3824183,58.4049521 Z M86.9689666,58.5547056 L84.6296399,58.5547056 L84.1402063,59.9648849 L83.04935,59.9648849 L85.3306084,53.9081857 L86.2721459,53.9081857 L88.557552,59.9648849 L87.462548,59.9648849 L86.9689666,58.5547056 Z M84.9241296,57.7061022 L86.6744769,57.7061022 L85.7993033,55.1935704 L84.9241296,57.7061022 Z M86.3426575,53.5462813 L85.5048135,53.5462813 L84.3849231,52.2858556 L85.5338477,52.2858556 L86.3426575,53.5462813 Z M94.2685325,59.9648849 L93.2191537,59.9648849 L90.5272689,55.6677899 L90.5272689,59.9648849 L89.47789,59.9648849 L89.47789,53.9081857 L90.5272689,53.9081857 L93.2274492,58.22192 L93.2274492,53.9081857 L94.2685325,53.9081857 L94.2685325,59.9648849 Z M100.539458,59.9648849 L99.4942272,59.9648849 L99.4942272,57.2734808 L96.7940469,57.2734808 L96.7940469,59.9648849 L95.7446681,59.9648849 L95.7446681,53.9081857 L96.7940469,53.9081857 L96.7940469,56.4290372 L99.4942272,56.4290372 L99.4942272,53.9081857 L100.539458,53.9081857 L100.539458,59.9648849 Z" id="Sống-Chất---Tiêu-Sàn-Copy" fill="#FA7020"></path>
                    <g id="Page-1" stroke-width="1" transform="translate(0.000000, 0.988235)">
                        <path d="M41.7278727,27.8558171 C40.3154352,28.1811086 39.225707,29.0281239 38.3121436,30.1297153 C38.2186047,30.3418619 38.0580296,30.1140007 38.0580296,30.0354278 C38.0533526,29.5781339 38.0673835,29.5105612 38.0658245,29.2151273 C38.0549116,28.1591082 38.1531275,28.2298238 37.0743121,28.223538 L36.9807732,28.223538 C36.218431,28.2266809 36.2121951,28.2329667 36.2121951,29.024981 L36.2121951,47.385884 C36.2121951,47.4974574 36.2168721,47.6043165 36.2137541,47.7143185 C36.2044002,48.0238955 36.3353547,48.1747554 36.654946,48.1747554 C38.3090256,48.1621837 38.0486757,48.3507586 38.0595886,46.8437313 C38.0751784,45.0082696 38.0627065,43.169665 38.0642655,41.3342033 C38.0642655,41.1314853 38.0611475,40.9256245 38.0705014,40.7166207 C38.0767374,40.5626179 38.2357535,40.4840451 38.4010056,40.6899059 C39.8820383,42.6196551 41.8401194,43.3833831 44.2113308,43.0486628 C46.4515876,42.7265141 48.047985,41.453634 48.9194558,39.3965969 C50.0310098,36.7722638 50.0434817,34.0677864 48.9443995,31.4277387 C47.6738294,28.3775408 44.6774663,27.1738047 41.7278727,27.8558171 M46.7898867,38.2180042 C45.6892455,40.9649109 42.6772927,41.9046422 40.0472904,40.3614714 C39.8742434,40.2593267 39.7027554,40.1493247 39.5375033,40.0330369 C38.7143609,39.4484549 38.2622562,38.9675891 38.2638152,37.6349936 C38.2638152,36.7659779 38.2638152,33.7739239 38.2716101,32.5057582 C38.274728,32.1458945 38.3760619,31.8771754 38.5865244,31.6163135 C39.9366027,29.9458548 42.4309735,29.2669854 44.4046445,30.0495709 C45.6393581,30.541437 46.41729,31.5141688 46.8569229,32.7210478 C47.5210491,34.5470807 47.5132542,36.4076858 46.7898867,38.2180042" id="Fill-1" fill="#824198"></path>
                        <g id="Group-5" transform="translate(35.473171, 26.682353)">
                            <mask id="mask-2" fill="white">
                                <use xlink:href="#path-1"></use>
                            </mask>
                            <g id="Clip-4"></g>
                            <path d="M6.89553886,2.92974678 C5.42468325,2.92974678 3.92039911,3.58666555 2.98440008,4.74188123 C2.80929823,4.95818375 2.73448198,5.16967955 2.73129831,5.45487843 C2.7217473,6.74788683 2.7217473,9.79695126 2.7217473,10.6813882 C2.7217473,11.9055003 3.09742037,12.309265 3.89174608,12.8700493 C4.05252142,12.9854106 4.2196641,13.0911585 4.38839862,13.1888952 C5.65709118,13.9339373 7.03562035,14.105377 8.2724762,13.6775787 C9.43133214,13.2770185 10.34027,12.3813658 10.832147,11.1604583 C11.5357381,9.4028 11.556432,7.59387003 10.8974122,5.78013333 C10.4389637,4.52557871 9.65578089,3.67158431 8.57014936,3.23897927 C8.04166012,3.02908571 7.47178316,2.92974678 6.89553886,2.92974678 M1.48966695,21.7416571 L1.2652182,21.7416571 L0.773341164,21.7384527 L0.763790153,21.7384527 C0.523423057,21.7384527 0.332402848,21.6695563 0.200280537,21.5381725 C0.0649745552,21.3939709 0.00130115215,21.2000997 0.00926032753,20.9533546 C0.0124439977,20.8844583 0.0108521626,20.8219709 0.00926032753,20.7578812 L0.00766849245,20.623293 L0.00926032753,1.89950588 C0.00926032753,0.926945658 0.150933649,0.779539496 1.09966735,0.773130532 L1.39256501,0.773130532 C2.36995174,0.776335014 2.51799241,0.917332213 2.52117608,1.84983641 L2.52117608,2.09177479 C2.52435975,2.23437423 2.52117608,2.32570196 2.51640057,2.42984762 C2.51640057,2.45067675 2.51640057,2.46990364 2.51480874,2.49233501 C3.52880768,1.37717535 4.63194939,0.694620728 5.88153992,0.407819608 C9.23235275,-0.369267227 12.328472,1.17369076 13.6051237,4.23076639 C14.7655715,7.01385882 14.7560205,9.82739384 13.5796543,12.6008728 C12.637288,14.8215787 10.8910449,16.17387 8.52876165,16.5119429 C6.07733564,16.8532202 4.06048059,16.0953602 2.52117608,14.2527832 L2.52117608,14.3280885 L2.52276791,16.4174106 C2.52435975,17.6351137 2.52595158,18.8528168 2.51640057,20.0737244 C2.51480874,20.2836179 2.51799241,20.4550577 2.52117608,20.6056683 C2.53072709,21.062307 2.53709443,21.3410969 2.33970688,21.541377 C2.16301318,21.7192258 1.92264609,21.7416571 1.48966695,21.7416571" id="Fill-3" fill="#824198" mask="url(#mask-2)"></path>
                        </g>
                        <path d="M59.6230892,27.6712188 C56.4720713,27.6807112 54.0869147,29.2374631 52.8784141,32.1184034 C52.1348439,33.8887341 52.0520481,35.7239295 52.4946873,37.5781096 C52.8895597,39.2313675 53.7143335,40.6378233 55.0645423,41.7104633 C56.7188665,43.0235773 58.6183938,43.4159294 60.6898816,43.162799 C62.9094465,42.8843556 64.5860619,41.7689998 65.7643102,39.9053272 C66.8916072,38.1255041 67.1877615,36.1669077 66.904345,34.1070591 C66.3980167,30.4398325 63.6243566,27.6221748 59.6230892,27.6712188 M64.5478485,35.3663828 C64.5542174,36.9816711 64.159345,38.3881269 63.1689796,39.5683474 C61.3044813,41.799059 57.688533,41.7072992 55.9131994,39.4022306 C54.3050498,37.3154869 54.2206618,33.8412722 55.7253166,31.7371258 C56.7300121,30.3322521 58.1009199,29.6709489 59.8300788,29.7358136 C61.8776832,29.8133348 63.2056008,30.916034 64.0240057,32.6990213 C64.4204703,33.5707391 64.5685474,34.5041574 64.5478485,35.3663828" id="Fill-6" fill="#824198"></path>
                        <path d="M59.5934318,29.8757821 C58.0757835,29.8757821 56.9008299,30.4928131 56.0085601,31.7667351 C54.6014585,33.7645126 54.6851581,37.1350646 56.1885933,39.1184926 C56.9766334,40.1596328 58.1958056,40.7702863 59.5334207,40.797391 L59.6265958,40.797391 C60.9152545,40.797391 62.1060005,40.2457302 62.903516,39.2779321 C63.7784142,38.2160647 64.2032294,36.8927165 64.1984917,35.2425172 L64.1984917,35.2329508 C64.2221802,34.3321174 64.0500432,33.4504167 63.7057692,32.6851069 C62.8861443,30.8659017 61.613278,29.9475299 59.8161044,29.8789709 C59.740301,29.8757821 59.6660768,29.8757821 59.5934318,29.8757821 M59.5144699,43.4823529 C57.7567773,43.4823529 56.2422874,42.9530136 54.90941,41.8783911 C53.5717949,40.797391 52.6763666,39.3401135 52.2547099,37.5464186 C51.7825175,35.5406692 51.9151735,33.6226114 52.6495195,31.8464549 C53.8876426,28.8426138 56.3638888,27.186037 59.6202788,27.1764706 L59.7229294,27.1764706 C63.6204903,27.1764706 66.6005136,29.8757821 67.1500887,33.9303297 C67.4580402,36.2007489 67.0616513,38.2383863 65.9751351,39.9810605 C64.737012,41.970866 62.9682648,43.123614 60.7194289,43.4074164 C60.3040892,43.4568426 59.9029626,43.4823529 59.5144699,43.4823529" id="Fill-8" fill="#824198"></path>
                        <path d="M90.1278187,31.8733869 C90.105714,30.447468 89.624149,29.1631862 88.3231339,28.3642897 C87.1310631,27.6338245 85.8111012,27.568576 84.4879815,27.7675044 C82.8175034,28.0157671 81.4454378,28.8862778 80.1807375,30.1673768 C80.1807375,29.5021602 80.1712641,28.9387949 80.1870531,28.3738382 C80.1933687,28.1303499 80.1317915,28.0348642 79.8760094,28.0444128 C79.3076048,28.0603271 78.7376212,28.0603271 78.1707955,28.0444128 C77.9323813,28.0380471 77.8376472,28.1001127 77.8502784,28.3611068 C77.8708042,28.805115 77.856594,29.2507147 77.856594,29.6947229 C77.856594,33.9565652 77.8613308,38.2152246 77.8439628,42.4738841 C77.840805,42.9115266 77.9608016,43.0133779 78.3650004,42.9831408 C78.8181452,42.946538 79.2807634,42.946538 79.7339083,42.9831408 C80.1286337,43.0197437 80.1902109,42.8590095 80.1902109,42.5041212 C80.1775797,39.1684896 80.1870531,35.8312666 80.1744219,32.4924521 C80.1712641,32.1439295 80.2738927,31.8893011 80.5075701,31.6458128 C81.8370054,30.2819596 83.3985393,29.5705916 85.3358518,29.8061228 C86.5563428,29.955717 87.4042131,30.6702678 87.7168357,31.8829354 C87.83999,32.3587722 87.8699891,32.8489318 87.8699891,33.3406828 C87.8668313,36.4089547 87.8763047,39.4772265 87.8605157,42.5454983 C87.8589368,42.901978 87.9410397,43.0054208 88.2962926,42.9831408 C88.8015412,42.9481294 89.3052108,42.9608608 89.8120383,42.979958 C90.0630837,42.9895065 90.1609756,42.9369894 90.1609756,42.6505325 C90.1467655,39.0570897 90.1799224,35.4668297 90.1278187,31.8733869" id="Fill-10" fill="#824198"></path>
                        <path d="M79.669035,42.7388164 C79.6259989,42.7388164 79.581369,42.7388164 79.5447087,42.7357088 C79.1175364,42.7030788 78.6696431,42.6968636 78.2121862,42.7326012 C77.9938183,42.7543544 77.7483536,42.7450316 77.5602703,42.5803282 C77.3737809,42.4109633 77.3482781,42.1592468 77.351466,41.9339449 C77.3674052,38.7268896 77.3642174,35.5213881 77.3642174,32.3112252 L77.3642174,29.4584377 L77.3642174,29.0668786 C77.3674052,28.7654402 77.3705931,28.4686633 77.3578417,28.1718864 C77.351466,28.0382591 77.3578417,27.847141 77.5044829,27.6979756 C77.6479363,27.5550255 77.8423953,27.5363798 78.000194,27.542595 C78.5676318,27.5550255 79.1334757,27.5550255 79.7009135,27.542595 C79.8491486,27.5488103 80.0340441,27.5488103 80.1822793,27.694868 C80.3257326,27.8378181 80.3416719,28.0289363 80.3352962,28.1765478 C80.3289205,28.5106161 80.3289205,28.8540072 80.3289205,29.2144901 C81.6056555,28.1050728 82.8887663,27.4819966 84.3217061,27.2722328 C85.990547,27.0360543 87.2784396,27.2333877 88.4021577,27.9015242 C89.6836745,28.6628891 90.3451539,29.9012723 90.3706568,31.5824903 C90.4073171,33.8681387 90.4041292,36.1864171 90.4041292,38.4332203 C90.4041292,39.6591732 90.4009414,40.8820184 90.4073171,42.1048636 C90.4073171,42.2415985 90.3929717,42.4451471 90.2431427,42.5834358 C90.0933136,42.7263859 89.9004485,42.7326012 89.7298984,42.7326012 C89.1927452,42.7139555 88.7081915,42.7030788 88.2379833,42.7326012 C88.0546817,42.7450316 87.8235624,42.7388164 87.6530123,42.5834358 C87.4840561,42.429609 87.463335,42.2043072 87.463335,42.0007586 C87.4744925,39.9745957 87.4744925,37.9530943 87.4728986,35.9253777 L87.4744925,33.0182069 C87.4744925,32.4681596 87.4282686,32.0532935 87.3262574,31.6679496 C87.0489142,30.6237921 86.3077384,30.0007159 85.1872081,29.863981 C83.4434527,29.6588786 81.9371922,30.2198025 80.5727912,31.5793827 C80.3942715,31.7518551 80.3257326,31.9274352 80.3257326,32.1884746 C80.3321083,33.7795718 80.3321083,35.370669 80.3321083,36.9571048 C80.3321083,38.6274461 80.3321083,40.2962336 80.3416719,41.9650211 C80.3416719,42.1918767 80.3161691,42.4265014 80.1392432,42.5865434 C79.9989777,42.7139555 79.8220519,42.7388164 79.669035,42.7388164" id="Fill-12" fill="#824198"></path>
                        <path d="M101.453375,41.5722423 C101.249165,41.1050228 101.067466,40.6268651 100.856823,40.1096422 C100.750698,40.1955856 100.692812,40.2502768 100.626886,40.2940298 C99.2392189,41.2206557 97.8258249,40.6503042 97.7791941,39.0267556 C97.6875406,36.023425 97.7406032,33.0107188 97.7261315,30.0011379 C97.7229156,29.7511207 97.8386885,29.7229938 98.046115,29.7292442 C98.3982575,29.7417451 98.752008,29.7354947 99.1041505,29.7323695 C99.6476399,29.726119 100.385692,29.9183197 100.681556,29.6511139 C101.017619,29.3479681 100.744266,28.6213559 100.787681,28.0853817 C100.813409,27.8041125 100.731403,27.7056683 100.422675,27.7150439 C99.6540718,27.7369204 98.8838605,27.7056683 98.1120412,27.73067 C97.7888419,27.7431708 97.7164838,27.6384762 97.7229156,27.3400182 C97.7406032,26.2461934 97.7229156,25.1570563 97.7341713,24.0647941 C97.7373872,23.8085265 97.6778928,23.7069571 97.3965004,23.7194579 C96.8497951,23.7413344 96.3030898,23.7475849 95.7563845,23.7194579 C95.4235374,23.7007067 95.3704748,23.8272778 95.3736907,24.1132349 C95.3897703,25.2054971 95.3704748,26.299322 95.3865544,27.3915843 C95.3897703,27.6572274 95.3077645,27.7369204 95.0344119,27.7275447 C94.4249962,27.7087935 93.8139726,27.73067 93.204557,27.7181691 C92.9730112,27.7150439 92.8588463,27.7587969 92.8717099,28.0244401 C92.8942213,28.4900969 92.8942213,28.9573164 92.8717099,29.4245359 C92.8620622,29.6714278 92.9408521,29.7448703 93.1916934,29.7386199 C93.7850294,29.7214312 94.3815814,29.7573712 94.9749175,29.7229938 C95.3222361,29.7058051 95.3897703,29.8183128 95.3865544,30.1386473 C95.3736907,33.0560344 95.3769067,35.971859 95.3833385,38.8861209 C95.3833385,39.3080248 95.4106737,39.7283661 95.4669522,40.1471447 C95.587549,40.9925151 95.9284358,41.7253777 96.6857835,42.2191615 C97.9046148,43.0160911 100.215249,42.8785817 101.34725,41.9566436 C101.490358,41.8410107 101.532165,41.7488169 101.453375,41.5722423" id="Fill-14" fill="#824198"></path>
                        <path d="M98.6484587,43.4823529 C97.8055801,43.4823529 96.9838548,43.2896797 96.3817987,42.8947793 C95.6040072,42.3820456 95.156533,41.6193145 95.010087,40.5620004 C94.9531357,40.1416226 94.9238465,39.6973595 94.9205921,39.2435425 C94.9140834,36.2706428 94.9108291,33.2993354 94.9271008,30.323251 C94.9271008,30.2707037 94.9238465,30.2324876 94.9205921,30.2117871 C94.9043203,30.2133795 94.8799127,30.2133795 94.8408604,30.2133795 C94.50078,30.2324876 94.1606996,30.2293029 93.8189921,30.2229335 C93.5586435,30.2229335 93.2950405,30.2197488 93.0314376,30.2261182 C92.9012633,30.2261182 92.6848485,30.2229335 92.5351481,30.0748458 C92.3854476,29.9251658 92.3740574,29.7261233 92.3821933,29.589182 C92.4017194,29.08441 92.4017194,28.6274083 92.3789389,28.18633 C92.3773117,28.1083053 92.3642943,27.8758236 92.5286394,27.7070355 C92.6946116,27.5430244 92.9321797,27.5462091 93.0412007,27.5493938 C93.3210754,27.5557632 93.599323,27.5589478 93.8791977,27.5525785 C94.2209053,27.5557632 94.5609856,27.5493938 94.8945573,27.5605402 L94.9238465,27.5605402 L94.9238465,27.5302857 C94.9173378,26.9729665 94.9173378,26.4124627 94.9173378,25.8567358 C94.9205921,25.3026013 94.9205921,24.7452822 94.9108291,24.19274 C94.9075747,23.9873281 94.9271008,23.7819162 95.0914459,23.6258668 C95.2574181,23.4714098 95.483596,23.4618557 95.6349236,23.4745944 C96.111687,23.4984795 96.630757,23.5048489 97.258848,23.4777791 C97.4118028,23.4777791 97.6119458,23.4793715 97.7649006,23.6226821 C97.9178554,23.7691774 97.9390087,23.9650353 97.9373815,24.1401928 C97.9308728,24.6624805 97.9341272,25.1815835 97.9341272,25.7038711 C97.9341272,26.2946295 97.9341272,26.8869801 97.9243641,27.4809232 L97.9243641,27.5637249 C97.9390087,27.5605402 97.9617892,27.5605402 97.9910784,27.5605402 C98.3913644,27.5493938 98.7916504,27.5493938 99.1951907,27.5557632 C99.5694418,27.5557632 99.9485745,27.5557632 100.329334,27.5462091 C100.495307,27.5430244 100.719857,27.5557632 100.879321,27.7197742 C101.03553,27.882193 101.038784,28.1051206 101.025767,28.2579853 C101.009495,28.4204041 101.032276,28.6194466 101.055056,28.8121198 C101.102244,29.2500135 101.155941,29.748416 100.815861,30.0525531 C100.501815,30.3423591 99.9957627,30.2945888 99.5059819,30.2515956 C99.3351281,30.2356722 99.1691559,30.2133795 99.0080652,30.2197488 L98.9022986,30.2229335 C98.57849,30.2293029 98.251427,30.2324876 97.9308728,30.2197488 C97.9341272,31.2277004 97.9308728,32.1926587 97.9276185,33.1592094 C97.9243641,35.1974053 97.9178554,37.3088488 97.9813154,39.3741144 C98.0008415,40.0110506 98.2449183,40.4807911 98.6744935,40.695757 C99.1349851,40.9234617 99.7663305,40.8231443 100.368387,40.4186898 C100.396049,40.3979894 100.425338,40.3725119 100.462763,40.3438498 L100.918373,39.9807962 L101.266589,40.8581758 C101.400018,41.2021213 101.530192,41.5317358 101.673384,41.8565733 C101.845865,42.2451044 101.642468,42.4712167 101.476495,42.6049733 C100.775181,43.1845853 99.697989,43.4823529 98.6484587,43.4823529" id="Fill-16" fill="#824198"></path>
                        <path d="M72.27665,25.200026 C70.8796004,25.2097085 69.6957679,26.4329302 69.714862,27.8481879 C69.7323649,29.2569906 70.8732357,30.385001 72.2782412,30.3882285 C73.7293907,30.391456 74.8957203,29.2376256 74.8877644,27.8046167 C74.8798086,26.3877452 73.6816555,25.1935711 72.27665,25.200026" id="Fill-18" fill="#F16E24"></path>
                        <path d="M71.7914705,30.3882353 L71.7868036,30.3882353 C70.2576072,30.3819286 68.9959813,29.1347751 68.975758,27.6006659 C68.9679798,26.8596266 69.2666631,26.1217405 69.7986927,25.5714794 C70.3291668,25.0259483 71.0509848,24.7090357 71.7836923,24.7058824 L71.7992487,24.7058824 C73.3315564,24.7058824 74.6320734,26.0050663 74.6414072,27.5549422 C74.6460742,28.3007116 74.359836,29.0054874 73.8371402,29.5352517 C73.2973323,30.0839361 72.5708473,30.3882353 71.7914705,30.3882353" id="Fill-20" fill="#F16E24"></path>
                        <path d="M73.1587695,31.6235294 C72.819445,31.8001112 72.44275,31.9130599 72.0331688,31.9130599 C71.6400307,31.9098782 71.2767891,31.8032928 70.9479283,31.6267111 C70.9479283,32.7052915 70.9509179,33.7822811 70.9509179,34.865634 C70.9509179,37.3568684 70.9568972,39.8481029 70.9464335,42.3409281 C70.9434438,42.6479577 71.0122056,42.754543 71.3141596,42.7354531 C71.7880181,42.7099999 72.2678558,42.7068182 72.7447039,42.7386348 C73.079544,42.7593155 73.1677385,42.6575026 73.163254,42.296385 C73.146811,39.9642332 73.1542851,37.6304906 73.1542851,35.296748 C73.1542851,34.0718115 73.1557799,32.8484659 73.1587695,31.6235294" id="Fill-22" fill="#824198"></path>
                        <path d="M72.9383249,43.2352941 C72.8990227,43.2352941 72.8580118,43.2321326 72.8204184,43.2289711 C72.3248695,43.2020983 71.8019799,43.2020983 71.2261179,43.2289711 C71.0672005,43.2447786 70.8211348,43.2321326 70.6451295,43.0772186 C70.4742505,42.9270469 70.4520363,42.713645 70.4537451,42.5286967 C70.4639978,40.6112409 70.4639978,38.7001082 70.4605802,36.7889755 L70.4554539,31.3764706 L70.9390413,31.6072608 C71.2961783,31.7716593 71.6618592,31.8570201 72.0309577,31.8570201 L72.0429192,31.8570201 C72.4239793,31.8570201 72.8033305,31.7716593 73.1673027,31.6009378 L73.6508901,31.3764706 L73.6440549,37.2141986 C73.6423461,38.9719981 73.6406374,40.7282168 73.6560165,42.481274 C73.6577252,42.6851914 73.6338022,42.9175624 73.4526705,43.0740571 C73.3040058,43.203679 73.1109126,43.2352941 72.9383249,43.2352941" id="Fill-24" fill="#824198"></path>
                        <g id="Group-28" transform="translate(0.000000, 18.282353)">
                            <mask id="mask-4" fill="white">
                                <use xlink:href="#path-3"></use>
                            </mask>
                            <g id="Clip-27"></g>
                            <path d="M2.28090271,6.28956028 L4.66625173,4.06188028 L4.65849198,4.0526304 C5.31807124,3.63638569 6.98952271,2.8208544 8.98843588,3.68263511 L14.20144,5.82552452 L15.4492088,2.81777111 L10.2656917,0.688756518 C6.64343759,-0.871390306 3.18724222,0.742714165 1.86032393,2.12865487 L-0.000465585366,4.02179746" id="Fill-26" fill="#F16E24" mask="url(#mask-4)"></path>
                        </g>
                        <g id="Group-31" transform="translate(13.302439, 0.000000)">
                            <mask id="mask-6" fill="white">
                                <use xlink:href="#path-5"></use>
                            </mask>
                            <g id="Clip-30"></g>
                            <path d="M28.1975347,4.78410585 C29.4862783,6.40691757 29.5579637,8.37940468 28.4237419,10.4742782 L8.11766725,39.1254084 L2.46567441,33.4876874 L0.0889062764,35.8607118 L8.5589305,44.306962 L31.2194712,12.3307366 L31.3086796,12.1876876 C33.341358,8.51927484 32.8953157,4.67602437 30.1171095,1.90405216 L28.2246159,0.0158050279 L25.8653708,2.3697562 L28.2086858,4.74913832" id="Fill-29" fill="#F16E24" mask="url(#mask-6)"></path>
                        </g>
                        <polygon id="Fill-32" fill="#824198" points="11.787424 33.8470588 2.21707317 24.2375576 4.64358152 21.9449033 11.787424 29.1254902 38.8197999 1.97647059 41.1390244 4.34676142"></polygon>
                    </g>
                </g>
            </g>
        </g>
    </g>
</svg>