<?xml version="1.0" encoding="UTF-8"?>
<svg width="68px" height="48px" viewBox="0 0 68 48" version="1.1" xmlns="http://www.w3.org/2000/svg" xmlns:xlink="http://www.w3.org/1999/xlink">
    <!-- Generator: Sketch 44.1 (41455) - http://www.bohemiancoding.com/sketch -->
    <title>icon/card@3x</title>
    <desc>Created with Sketch.</desc>
    <defs>
        <linearGradient x1="45.9899083%" y1="-291.735156%" x2="111.393836%" y2="439.466016%" id="linearGradient-1">
            <stop stop-color="#0068F2" offset="0%"></stop>
            <stop stop-color="#0F4098" offset="100%"></stop>
        </linearGradient>
    </defs>
    <g id="Desktop" stroke="none" stroke-width="1" fill="none" fill-rule="evenodd" stroke-linecap="round" stroke-linejoin="round">
        <g id="Gioithieu_Huongdansudung" transform="translate(-149.000000, -571.000000)" stroke-width="2">
            <g id="thanhtoantaiquay" transform="translate(0.000000, 220.000000)">
                <g id="dungthevatly" transform="translate(114.000000, 115.000000)">
                    <g id="process" transform="translate(0.000000, 224.000000)">
                        <g id="icon/card" transform="translate(36.000000, 13.000000)">
                            <path d="M65.4161538,40.4535926 L11.8461538,40.4535926" id="Stroke-7" stroke="url(#linearGradient-1)"></path>
                            <path d="M13.5376154,8.08237037 C13.5376154,9.96411111 12.0221538,11.4889259 10.153,11.4889259 C8.28469231,11.4889259 6.76923077,9.96411111 6.76923077,8.08237037 C6.76923077,6.20062963 8.28469231,4.67581481 10.153,4.67581481 C12.0221538,4.67581481 13.5376154,6.20062963 13.5376154,8.08237037 Z" id="Stroke-9" stroke="#FB7020"></path>
                            <path d="M16.9230769,11.1567037 C17.3630769,11.3671111 17.8538462,11.4889259 18.3725385,11.4889259 C20.2416923,11.4889259 21.7571538,9.96411111 21.7571538,8.08237037 C21.7571538,6.20062963 20.2416923,4.67581481 18.3725385,4.67581481 C17.8538462,4.67581481 17.3630769,4.79677778 16.9230769,5.00718519" id="Stroke-11" stroke="#FB7020"></path>
                            <path d="M5.92307692,25.9721111 L12.0805385,25.9721111" id="Stroke-13" stroke="url(#linearGradient-1)"></path>
                            <path d="M17.7692308,25.9721111 L23.9266923,25.9721111" id="Stroke-15" stroke="url(#linearGradient-1)"></path>
                            <path d="M29.6153846,25.9721111 L35.7736923,25.9721111" id="Stroke-17" stroke="url(#linearGradient-1)"></path>
                            <path d="M41.4615385,25.9721111 L47.619,25.9721111" id="Stroke-19" stroke="url(#linearGradient-1)"></path>
                            <path d="M48.3796923,34.0740741 L5.19030769,34.0740741 C2.32353846,34.0740741 0,31.7348889 0,28.8488148 L0,5.64181481 C0,2.75574074 2.32353846,0.416555556 5.19030769,0.416555556 L48.3796923,0.416555556 C51.2456154,0.416555556 53.57,2.75574074 53.57,5.64181481 L53.57,28.8488148 C53.57,31.7348889 51.2456154,34.0740741 48.3796923,34.0740741 Z" id="Stroke-21" stroke="url(#linearGradient-1)"></path>
                            <path d="M54.0023846,12.3424815 L61.8174615,12.3424815 C63.8042308,12.3424815 65.4153077,13.9635556 65.4153077,15.9645556 L65.4153077,42.3779259 C65.4153077,44.3780741 63.8042308,46 61.8174615,46 L15.444,46 C13.4563846,46 11.8461538,44.3780741 11.8461538,42.3779259 L11.8461538,34.5093704" id="Stroke-23" stroke="url(#linearGradient-1)"></path>
                            <path d="M45.2726154,11.4889259 L40.0053077,11.4889259 C38.9408462,11.4889259 38.0769231,10.620037 38.0769231,9.54840741 L38.0769231,6.61633333 C38.0769231,5.5447037 38.9408462,4.67581481 40.0053077,4.67581481 L45.2726154,4.67581481 C46.3370769,4.67581481 47.2001538,5.5447037 47.2001538,6.61633333 L47.2001538,9.54840741 C47.2001538,10.620037 46.3370769,11.4889259 45.2726154,11.4889259 Z" id="Stroke-25" stroke="#FB7020"></path>
                        </g>
                    </g>
                </g>
            </g>
        </g>
    </g>
</svg>