<?xml version="1.0" encoding="UTF-8"?>
<svg width="73px" height="69px" viewBox="0 0 73 69" version="1.1" xmlns="http://www.w3.org/2000/svg" xmlns:xlink="http://www.w3.org/1999/xlink">
    <!-- Generator: Sketch 44.1 (41455) - http://www.bohemiancoding.com/sketch -->
    <title>icon/click@3x</title>
    <desc>Created with Sketch.</desc>
    <defs>
        <linearGradient x1="-1241.50391%" y1="-624.21875%" x2="963.818359%" y2="1019.49463%" id="linearGradient-1">
            <stop stop-color="#0068F2" offset="0%"></stop>
            <stop stop-color="#0F4098" offset="100%"></stop>
        </linearGradient>
    </defs>
    <g id="Desktop" stroke="none" stroke-width="1" fill="none" fill-rule="evenodd" stroke-linecap="round" stroke-linejoin="round">
        <g id="Gioithieu_Huongdanmothe" transform="translate(-734.000000, -676.000000)">
            <g id="dangkyonline" transform="translate(0.000000, 560.000000)">
                <g id="process" transform="translate(705.000000, 95.000000)">
                    <g id="icon/click" transform="translate(29.000000, 20.000000)">
                        <g id="Page-1" transform="translate(1.240310, 1.858407)">
                            <g id="Group-5" transform="translate(0.000000, 0.138761)" stroke="#0068F2" stroke-width="2">
                                <path d="M44.9854651,48.5684779 L0.309953488,48.5684779 L0.309953488,0.17060177 L59.0386357,0.17060177 C59.0386357,0.17060177 59.2027933,24.669381 59.0386357,26.9134029" id="Stroke-1"></path>
                                <path d="M0.310077519,7.43362832 L59.0387597,7.43362832" id="Stroke-3"></path>
                            </g>
                            <g transform="translate(48.992248, 30.973451)" stroke="url(#linearGradient-1)" stroke-width="2">
                                <path d="M9.30232558,11.7699115 L9.30232558,6.81415929 L11.1627907,6.81415929 C12.1902452,6.81415929 13.0232558,7.68242282 13.0232558,8.75440513 L9.30232558,11.7699115 Z" id="Stroke-1"></path>
                                <path d="M21.0852713,15.4867257 C20.9911901,19.0305492 20.3911914,22.5481757 19.2811247,25.9253321 C18.9223246,27.0170248 18.7507647,27.8761062 18.7507647,27.8761062 L10.5426357,27.8761062" id="Stroke-3"></path>
                                <path d="M9.30232558,6.86179682 L9.30232558,1.87646365 C9.30232558,0.840173802 8.46673878,0 7.43510005,0 C6.40391202,0 5.56787453,0.840173802 5.56787453,1.87646365 L5.56787453,15.7694508 L4.27979088,12.4028676 C3.9512349,11.5432181 3.13007031,10.9761574 2.21380927,10.9761574 C0.991076257,10.9761574 0,11.9725899 0,13.2013724 C0,15.4542158 0.587705066,17.672184 1.73877772,19.6057161 C2.17955652,20.3462466 2.70867135,21.1085175 3.32972778,21.8060203 C5.62421129,24.3831572 6.23174689,27.8761062 6.23174689,27.8761062" id="Stroke-5"></path>
                                <path d="M13.0232558,13.2967349 L13.0232558,8.67256637 L14.8837209,8.67256637 C15.9111755,8.67256637 16.744186,9.48317236 16.744186,10.4829926 L16.744186,14.8672566" id="Stroke-7"></path>
                                <path d="M16.744186,10.5309735 L18.6046512,10.5309735 C19.6321057,10.5309735 20.4651163,11.3996232 20.4651163,12.4710359 L20.4651163,15.4867257" id="Stroke-9"></path>
                                <polygon id="Stroke-11" points="4.96124031 35.9292035 19.8449612 35.9292035 19.8449612 30.3539823 4.96124031 30.3539823"></polygon>
                                <path d="M16.744186,33.4513274 C16.744186,33.1090708 16.4666667,32.8318584 16.124031,32.8318584 C15.7813953,32.8318584 15.503876,33.1090708 15.503876,33.4513274 C15.503876,33.7935841 15.7813953,34.0707965 16.124031,34.0707965 C16.4666667,34.0707965 16.744186,33.7935841 16.744186,33.4513274 Z" id="Stroke-13"></path>
                            </g>
                            <polyline id="Stroke-6" stroke="#FB7020" stroke-width="2" points="5.81488372 20.9642566 5.81488372 13.5746106 24.4555039 13.5746106 24.4555039 20.9642566"></polyline>
                            <path d="M5.81488372,26.6371681 L24.4555039,26.6371681" id="Stroke-7" stroke="#0068F2" stroke-width="2"></path>
                            <path d="M5.81488372,31.5929204 L24.4555039,31.5929204" id="Stroke-8" stroke="#0068F2" stroke-width="2"></path>
                            <path d="M5.81488372,36.5486726 L24.4555039,36.5486726" id="Stroke-9" stroke="#0068F2" stroke-width="2"></path>
                            <polyline id="Stroke-10" stroke="#0068F2" stroke-width="2" points="50.1047723 59.2285487 10.8427907 59.2285487 10.8427907 48.7074867"></polyline>
                            <polyline id="Stroke-11" stroke="#0068F2" stroke-width="2" points="59.0388837 10.8307345 69.5715969 10.8307345 69.5715969 37.2389208"></polyline>
                        </g>
                    </g>
                </g>
            </g>
        </g>
    </g>
</svg>