<?xml version="1.0" encoding="UTF-8"?>
<svg width="52px" height="66px" viewBox="0 0 52 66" version="1.1" xmlns="http://www.w3.org/2000/svg" xmlns:xlink="http://www.w3.org/1999/xlink">
    <!-- Generator: Sketch 44.1 (41455) - http://www.bohemiancoding.com/sketch -->
    <title>icon/dangky@3x</title>
    <desc>Created with Sketch.</desc>
    <defs>
        <linearGradient x1="-30.9004748%" y1="-4027.63672%" x2="724.586069%" y2="2080.27344%" id="linearGradient-1">
            <stop stop-color="#0068F2" offset="0%"></stop>
            <stop stop-color="#0F4098" offset="100%"></stop>
        </linearGradient>
        <linearGradient x1="-53.0848681%" y1="-7738.29531%" x2="692.446955%" y2="4022.25156%" id="linearGradient-2">
            <stop stop-color="#0068F2" offset="0%"></stop>
            <stop stop-color="#0F4098" offset="100%"></stop>
        </linearGradient>
        <linearGradient x1="0%" y1="0%" x2="161.747292%" y2="124.652681%" id="linearGradient-3">
            <stop stop-color="#0068F2" offset="0%"></stop>
            <stop stop-color="#0F4098" offset="100%"></stop>
        </linearGradient>
        <linearGradient x1="-316.9205%" y1="-914.891145%" x2="838.708979%" y2="591.230829%" id="linearGradient-4">
            <stop stop-color="#0068F2" offset="0%"></stop>
            <stop stop-color="#0F4098" offset="100%"></stop>
        </linearGradient>
        <linearGradient x1="-29.3784618%" y1="-173.419195%" x2="122.118554%" y2="138.657663%" id="linearGradient-5">
            <stop stop-color="#0068F2" offset="0%"></stop>
            <stop stop-color="#0F4098" offset="100%"></stop>
        </linearGradient>
        <linearGradient x1="-50.8168467%" y1="-212.629811%" x2="100%" y2="100%" id="linearGradient-6">
            <stop stop-color="#0068F2" offset="0%"></stop>
            <stop stop-color="#0F4098" offset="100%"></stop>
        </linearGradient>
    </defs>
    <g id="Desktop" stroke="none" stroke-width="1" fill="none" fill-rule="evenodd">
        <g id="Gioithieu_Huongdanmothe" transform="translate(-1037.000000, -990.000000)">
            <g id="mothe-ungdungdidong" transform="translate(114.000000, 987.000000)">
                <g id="process" transform="translate(584.000000, 0.000000)">
                    <g id="icon/dangky" transform="translate(340.000000, 4.000000)">
                        <g stroke-width="1">
                            <path d="M10.2949485,42.3225806 L3.34701031,42.3225806" id="Stroke-1" stroke="url(#linearGradient-1)" stroke-width="2"></path>
                            <path d="M27.9515979,5.16129032 L3.34695876,5.16129032" id="Stroke-2" stroke="url(#linearGradient-2)" stroke-width="2"></path>
                            <g id="Group-33" transform="translate(0.000000, 0.023226)" stroke-width="2">
                                <path d="M10.294433,50.9828645 L4.11041237,50.9828645 C1.98257732,50.9828645 0.257835052,49.2553806 0.257835052,47.1248 L0.257835052,4.09254194 C0.257835052,1.96196129 1.98257732,0.234993548 4.11041237,0.234993548 L27.1872165,0.234993548 C29.3150515,0.234993548 31.0403093,1.96196129 31.0403093,4.09254194 L31.0403093,35.8716387" id="Stroke-3" stroke="url(#linearGradient-3)"></path>
                                <path d="M12.5984021,2.58064516 L18.699433,2.58064516" id="Stroke-5" stroke="url(#linearGradient-2)"></path>
                                <path d="M49.8814433,59.8709677 L17.2474227,59.8709677" id="Stroke-7" stroke="url(#linearGradient-2)" stroke-linecap="round" stroke-linejoin="round"></path>
                                <path d="M18.2952062,40.5836903 C18.2952062,41.7238194 17.3720103,42.6476903 16.2333505,42.6476903 C15.0952062,42.6476903 14.1720103,41.7238194 14.1720103,40.5836903 C14.1720103,39.4435613 15.0952062,38.5196903 16.2333505,38.5196903 C17.3720103,38.5196903 18.2952062,39.4435613 18.2952062,40.5836903 Z" id="Stroke-9" stroke="url(#linearGradient-4)" stroke-linecap="round" stroke-linejoin="round"></path>
                                <path d="M20.6258247,42.4466065 C20.893866,42.5740903 21.1928351,42.6478968 21.5088144,42.6478968 C22.6474742,42.6478968 23.5706701,41.7240258 23.5706701,40.5838968 C23.5706701,39.4437677 22.6474742,38.5198968 21.5088144,38.5198968 C21.1928351,38.5198968 20.893866,38.5931871 20.6258247,38.720671" id="Stroke-11" stroke="url(#linearGradient-4)" stroke-linecap="round" stroke-linejoin="round"></path>
                                <path d="M14.0889175,51.0967742 L17.8399485,51.0967742" id="Stroke-13" stroke="url(#linearGradient-2)" stroke-linecap="round" stroke-linejoin="round"></path>
                                <path d="M21.1871134,51.0967742 L24.9381443,51.0967742" id="Stroke-15" stroke="url(#linearGradient-2)" stroke-linecap="round" stroke-linejoin="round"></path>
                                <path d="M28.2847938,51.0967742 L32.0363402,51.0967742" id="Stroke-17" stroke="url(#linearGradient-2)" stroke-linecap="round" stroke-linejoin="round"></path>
                                <path d="M35.3830412,51.0967742 L39.1340722,51.0967742" id="Stroke-19" stroke="url(#linearGradient-2)" stroke-linecap="round" stroke-linejoin="round"></path>
                                <path d="M39.7669588,56.2641032 L13.4566495,56.2641032 C11.7102577,56.2641032 10.2947938,54.8468129 10.2947938,53.0981677 L10.2947938,39.0372645 C10.2947938,37.2886194 11.7102577,35.871329 13.4566495,35.871329 L39.7669588,35.871329 C41.5128351,35.871329 42.9288144,37.2886194 42.9288144,39.0372645 L42.9288144,53.0981677 C42.9288144,54.8468129 41.5128351,56.2641032 39.7669588,56.2641032 Z" id="Stroke-21" stroke="url(#linearGradient-5)" stroke-linecap="round" stroke-linejoin="round"></path>
                                <path d="M42.9287113,42.8331871 L47.6895361,42.8331871 C48.8998454,42.8331871 49.8812887,43.8153806 49.8812887,45.0277677 L49.8812887,61.0313806 C49.8812887,62.2432516 48.8998454,63.2259613 47.6895361,63.2259613 L19.4395361,63.2259613 C18.2287113,63.2259613 17.2477835,62.2432516 17.2477835,61.0313806 L17.2477835,56.2638968" id="Stroke-23" stroke="url(#linearGradient-6)" stroke-linecap="round" stroke-linejoin="round"></path>
                                <path d="M37.9598454,42.6476903 L34.7510825,42.6476903 C34.1026289,42.6476903 33.5763402,42.1212387 33.5763402,41.4719484 L33.5763402,39.6954323 C33.5763402,39.0461419 34.1026289,38.5196903 34.7510825,38.5196903 L37.9598454,38.5196903 C38.608299,38.5196903 39.1340722,39.0461419 39.1340722,39.6954323 L39.1340722,41.4719484 C39.1340722,42.1212387 38.608299,42.6476903 37.9598454,42.6476903 Z" id="Stroke-25" stroke="url(#linearGradient-4)" stroke-linecap="round" stroke-linejoin="round"></path>
                            </g>
                        </g>
                        <path d="M9.36785199,19.4165827 C9.36785199,19.32048 9.35367352,19.2347534 9.32531615,19.1594002 C9.29695878,19.084047 9.24515283,19.0147013 9.16989673,18.9513609 C9.09464064,18.8880205 8.99102873,18.8274112 8.85905789,18.7695312 C8.72708706,18.7116513 8.55749072,18.651042 8.3502638,18.5877016 C8.12340484,18.5199929 7.91399972,18.4424568 7.72204215,18.3550907 C7.53008457,18.2677247 7.36485084,18.1661632 7.226336,18.0504032 C7.08782116,17.9346432 6.97930132,17.801412 6.90077322,17.6507056 C6.82224512,17.4999992 6.78298166,17.3274539 6.78298166,17.1330645 C6.78298166,16.9408593 6.8238811,16.7639457 6.9056812,16.6023185 C6.98748131,16.4406914 7.10254506,16.3009078 7.25087591,16.1829637 C7.39920676,16.0650196 7.57698299,15.9732866 7.78420992,15.9077621 C7.99143684,15.8422376 8.2204737,15.8094758 8.47132734,15.8094758 C8.73963168,15.8094758 8.9806657,15.8482439 9.19443664,15.9257812 C9.40820757,16.0033186 9.58871043,16.1087023 9.73595061,16.2419355 C9.8831908,16.3751687 9.99607325,16.529695 10.0746013,16.7055192 C10.1531294,16.8813433 10.1923929,17.0686314 10.1923929,17.2673891 L9.36785199,17.2673891 C9.36785199,17.1516291 9.34985624,17.0451534 9.31386419,16.9479587 C9.27787215,16.850764 9.22279424,16.7666754 9.14862881,16.6956905 C9.07446338,16.6247056 8.98066734,16.5695566 8.86723786,16.5302419 C8.75380839,16.4909272 8.61965823,16.4712702 8.46478337,16.4712702 C8.31863385,16.4712702 8.19211826,16.487651 8.08523279,16.5204133 C7.97834732,16.5531756 7.88945921,16.599042 7.81856579,16.6580141 C7.74767236,16.7169862 7.69532108,16.786878 7.66151037,16.8676915 C7.62769966,16.9485051 7.61079456,17.0358698 7.61079456,17.1297883 C7.61079456,17.3067045 7.69422942,17.4541325 7.86110163,17.5720766 C8.02797384,17.6900208 8.282641,17.7992266 8.62511077,17.8996976 C8.89341511,17.978327 9.12572391,18.0656917 9.32204416,18.1617944 C9.51836441,18.257897 9.68141683,18.3665569 9.81120633,18.4877772 C9.94099583,18.6089976 10.0375185,18.745505 10.1007772,18.8973034 C10.164036,19.0491019 10.1956649,19.2200091 10.1956649,19.4100302 C10.1956649,19.6109721 10.1558561,19.7917079 10.0762373,19.9522429 C9.99661857,20.112778 9.8831908,20.2492854 9.73595061,20.3617692 C9.58871043,20.4742529 9.41038888,20.5605256 9.20098061,20.6205897 C8.99157235,20.6806539 8.75817289,20.7106855 8.50077523,20.7106855 C8.27173495,20.7106855 8.04597005,20.6795618 7.82347377,20.6173135 C7.60097749,20.5550652 7.40138823,20.4611481 7.22470001,20.3355595 C7.04801179,20.2099708 6.90568174,20.0532603 6.79770561,19.8654234 C6.68972947,19.6775864 6.63574221,19.4569905 6.63574221,19.203629 L7.46355511,19.203629 C7.46355511,19.3543354 7.49027608,19.4837444 7.54371881,19.5918599 C7.59716155,19.6999753 7.67023521,19.7884321 7.76294199,19.8572329 C7.85564878,19.9260336 7.96525927,19.9762683 8.09177676,20.0079385 C8.21829426,20.0396087 8.35462572,20.0554435 8.50077523,20.0554435 C8.7887116,20.0554435 9.00520595,19.9970184 9.1502648,19.8801663 C9.29532365,19.7633143 9.36785199,19.6087879 9.36785199,19.4165827 Z M12.5173164,20.6451613 L11.6927755,20.6451613 L11.6927755,15.875 L12.5173164,15.875 L12.5173164,20.6451613 Z M17.9080924,20.0259577 C17.8579217,20.0914822 17.7881199,20.1641041 17.6986852,20.2438256 C17.6092504,20.3235471 17.4941866,20.3978071 17.3534905,20.4666079 C17.2127943,20.5354086 17.0437433,20.5932877 16.8463324,20.640247 C16.6489214,20.6872062 16.417158,20.7106855 16.151035,20.7106855 C15.8521919,20.7106855 15.577893,20.6593587 15.32813,20.5567036 C15.0783671,20.4540485 14.864054,20.3055285 14.6851844,20.1111391 C14.5063149,19.9167497 14.3672568,19.6775888 14.268006,19.3936492 C14.1687552,19.1097096 14.1191306,18.7853681 14.1191306,18.4206149 L14.1191306,18.1060988 C14.1191306,17.7435298 14.1638473,17.4197343 14.2532821,17.1347026 C14.3427168,16.849671 14.4714137,16.608872 14.6393766,16.4122984 C14.8073395,16.2157248 15.012382,16.0661127 15.2545103,15.9634577 C15.4966386,15.8608026 15.7714828,15.8094758 16.0790512,15.8094758 C16.3691689,15.8094758 16.6222001,15.8471518 16.8381524,15.922505 C17.0541047,15.9978582 17.2362435,16.1032419 17.3845743,16.2386593 C17.5329052,16.3740766 17.6496049,16.5351553 17.734677,16.7219002 C17.8197491,16.9086451 17.876463,17.1134061 17.9048204,17.3361895 L17.0933674,17.3361895 C17.0737354,17.2116929 17.0410159,17.0970267 16.9952078,16.9921875 C16.9493997,16.8873483 16.8866873,16.7967074 16.8070685,16.7202621 C16.7274497,16.6438168 16.6292911,16.5837536 16.5125896,16.5400706 C16.3958881,16.4963876 16.25683,16.4745464 16.0954112,16.4745464 C15.9012723,16.4745464 15.7327666,16.5105843 15.5898891,16.5826613 C15.4470115,16.6547383 15.3281305,16.760122 15.2332424,16.8988155 C15.1383543,17.0375091 15.0674619,17.2078703 15.0205632,17.4099042 C14.9736645,17.6119382 14.9502154,17.8418166 14.9502154,18.0995464 L14.9502154,18.4206149 C14.9502154,18.682713 14.9785724,18.9147755 15.0352871,19.1168095 C15.0920019,19.3188434 15.1732554,19.4886586 15.2790502,19.6262601 C15.384845,19.7638616 15.5135419,19.8686992 15.6651448,19.9407762 C15.8167476,20.0128532 15.9885253,20.0488911 16.1804828,20.0488911 C16.3222697,20.0488911 16.4438774,20.0396086 16.5453095,20.0210433 C16.6467416,20.0024781 16.7323578,19.9789988 16.8021605,19.9506048 C16.8719633,19.9222109 16.9292225,19.8910872 16.9739399,19.8572329 C17.0186573,19.8233785 17.0551941,19.7911628 17.0835515,19.7605847 L17.0835515,18.8268649 L16.1019551,18.8268649 L16.1019551,18.1978327 L17.9080924,18.1978327 L17.9080924,20.0259577 Z M23.3185003,20.6451613 L22.4906874,20.6451613 L20.3671674,17.2608367 L20.3671674,20.6451613 L19.5393544,20.6451613 L19.5393544,15.875 L20.3671674,15.875 L22.4972314,19.2724294 L22.4972314,15.875 L23.3185003,15.875 L23.3185003,20.6451613 Z M14.7464461,23.6169355 L14.7464461,26.8079637 C14.7464461,27.0809825 14.7000934,27.3201435 14.6073866,27.5254536 C14.5146799,27.7307638 14.3876189,27.9022171 14.2262001,28.0398185 C14.0647812,28.17742 13.8760985,28.2806196 13.6601462,28.3494204 C13.4441939,28.4182211 13.2129758,28.452621 12.9664848,28.452621 C12.7112685,28.452621 12.4751424,28.4182211 12.2580994,28.3494204 C12.0410565,28.2806196 11.8529191,28.17742 11.6936815,28.0398185 C11.534444,27.9022171 11.4101097,27.7307638 11.3206749,27.5254536 C11.2312402,27.3201435 11.1865234,27.0809825 11.1865234,26.8079637 L11.1865234,23.6169355 L12.0110644,23.6169355 L12.0110644,26.8079637 C12.0110644,26.9783275 12.0334227,27.1252094 12.0781401,27.2486139 C12.1228575,27.3720184 12.1866606,27.4741259 12.2695514,27.5549395 C12.3524422,27.6357531 12.4527821,27.6952703 12.5705743,27.7334929 C12.6883664,27.7717156 12.8203353,27.7908266 12.9664848,27.7908266 C13.1126343,27.7908266 13.2451485,27.7717156 13.3640313,27.7334929 C13.4829141,27.6952703 13.5832541,27.6357531 13.6650542,27.5549395 C13.7468543,27.4741259 13.8101121,27.3720184 13.8548295,27.2486139 C13.8995468,27.1252094 13.9219052,26.9783275 13.9219052,26.8079637 L13.9219052,23.6169355 L14.7464461,23.6169355 Z M17.1793452,26.6146673 L17.1793452,28.3870968 L16.3515323,28.3870968 L16.3515323,23.6169355 L18.1740295,23.6169355 C18.4510592,23.6169355 18.6970011,23.6546115 18.9118627,23.7299647 C19.1267243,23.8053179 19.3083178,23.9107016 19.4566487,24.046119 C19.6049795,24.1815363 19.717862,24.342069 19.7952994,24.5277218 C19.8727368,24.7133746 19.911455,24.9154055 19.911455,25.1338206 C19.911455,25.3653405 19.8727368,25.5728317 19.7952994,25.7563004 C19.717862,25.9397691 19.6049795,26.0948414 19.4566487,26.2215222 C19.3083178,26.3482029 19.1267243,26.4453962 18.9118627,26.5131048 C18.6970011,26.5808135 18.4510592,26.6146673 18.1740295,26.6146673 L17.1793452,26.6146673 Z M17.1793452,25.9495968 L18.1740295,25.9495968 C18.333267,25.9495968 18.4701438,25.9299397 18.5846639,25.890625 C18.6991841,25.8513103 18.7935254,25.7956153 18.8676909,25.7235383 C18.9418563,25.6514613 18.9958436,25.5657347 19.0296543,25.4663558 C19.063465,25.366977 19.0803701,25.2583171 19.0803701,25.140373 C19.0803701,25.0289813 19.063465,24.9219595 19.0296543,24.8193044 C18.9958436,24.7166494 18.9418563,24.6254624 18.8676909,24.5457409 C18.7935254,24.4660194 18.6991841,24.40268 18.5846639,24.3557208 C18.4701438,24.3087615 18.333267,24.2852823 18.1740295,24.2852823 L17.1793452,24.2852823 L17.1793452,25.9495968 Z" id="Sign-Up" fill="#FB7020"></path>
                    </g>
                </g>
            </g>
        </g>
    </g>
</svg>