<?xml version="1.0" encoding="UTF-8"?>
<svg width="62px" height="72px" viewBox="0 0 62 72" version="1.1" xmlns="http://www.w3.org/2000/svg" xmlns:xlink="http://www.w3.org/1999/xlink">
    <!-- Generator: Sketch 44.1 (41455) - http://www.bohemiancoding.com/sketch -->
    <title>icon/fill-form@3x</title>
    <desc>Created with Sketch.</desc>
    <defs>
        <linearGradient x1="-54.3677052%" y1="-60.867074%" x2="356.935635%" y2="398.518661%" id="linearGradient-1">
            <stop stop-color="#0068F2" offset="0%"></stop>
            <stop stop-color="#0F4098" offset="100%"></stop>
        </linearGradient>
        <polygon id="path-2" points="0 71.7346667 61.3373333 71.7346667 61.3373333 0 0 0"></polygon>
    </defs>
    <g id="Desktop" stroke="none" stroke-width="1" fill="none" fill-rule="evenodd">
        <g id="Gioithieu_Huongdanmothe" transform="translate(-937.000000, -296.000000)">
            <g id="dangkyoffline" transform="translate(114.000000, 250.000000)">
                <g id="process" transform="translate(593.000000, 31.000000)">
                    <g id="icon/fill-form" transform="translate(230.000000, 15.000000)">
                        <g id="Page-1">
                            <polygon id="Stroke-1" stroke="url(#linearGradient-1)" stroke-width="2" points="40.3965333 38.3726 45.7985333 40.5226 58.7472 7.99193333 53.3458667 5.84193333"></polygon>
                            <path d="M38.4115333,48.4292 L40.3295333,49.1925333 C41.2915333,49.5752 42.3822,49.1058667 42.7648667,48.1438667 L45.7982,40.5225333 L40.3968667,38.3725333 L37.3635333,45.9938667 C36.9802,46.9558667 37.4502,48.0458667 38.4115333,48.4292 Z" id="Stroke-3" stroke="url(#linearGradient-1)" stroke-width="2"></path>
                            <path d="M39.3705333,48.8107333 L37.2038667,54.2554" id="Stroke-5" stroke="url(#linearGradient-1)" stroke-width="2" stroke-linecap="round"></path>
                            <path d="M59.1556667,1.89666667 L57.2376667,1.13333333 C56.2756667,0.75 55.1856667,1.21933333 54.8023333,2.182 L53.3456667,5.84133333 L58.7476667,7.992 L60.2043333,4.332 C60.587,3.37 60.1176667,2.27933333 59.1556667,1.89666667 Z" id="Stroke-7" stroke="url(#linearGradient-1)" stroke-width="2"></path>
                            <path d="M16.5984,2.03406667 L16.5984,9.8574 C16.5984,10.5967333 17.1970667,11.1960667 17.9370667,11.1960667 L18.4737333,11.1960667 C19.1457333,11.1960667 19.7137333,10.6974 19.8010667,10.0307333 L19.8224,9.86473333 C20.1270667,7.53073333 22.1150667,5.78473333 24.4690667,5.78473333 C26.8230667,5.78473333 28.8110667,7.53073333 29.1150667,9.86473333 L29.1377333,10.0307333 C29.2237333,10.6974 29.7924,11.1960667 30.4650667,11.1960667 C31.2037333,11.1960667 31.8037333,10.5967333 31.8037333,9.8574 L31.8037333,2.03406667 C31.8037333,1.46273333 31.3404,1.00006667 30.7690667,1.00006667 L17.6324,1.00006667 C17.0610667,1.00006667 16.5984,1.46273333 16.5984,2.03406667 Z" id="Stroke-9" stroke="url(#linearGradient-1)" stroke-width="2"></path>
                            <polyline id="Stroke-11" stroke="url(#linearGradient-1)" stroke-width="2" points="31.2488 70.7261333 1.00013333 70.7261333 1.00013333 5.43146667 16.5974667 5.43146667"></polyline>
                            <path d="M46.9278,12.7374667 C46.7818,9.31146667 46.7818,8.73746667 46.7818,5.40413333 C41.4484667,5.40413333 36.7818,5.40413333 31.3298,5.43146667" id="Stroke-13" stroke="url(#linearGradient-1)" stroke-width="2" stroke-linecap="round"></path>
                            <path d="M16.6791333,70.7261333 C26.7818,70.7374667 36.7818,70.7374667 46.9278,70.7261333 C46.9278,70.7261333 45.6731333,70.7261333 46.9278,70.7261333 C46.7818,56.7374667 46.7818,61.7248 46.9278,47.6268" id="Stroke-15" stroke="url(#linearGradient-1)" stroke-width="2" stroke-linecap="round"></path>
                            <path d="M7.33333333,54 L33.6180667,54" id="Stroke-17" stroke="url(#linearGradient-1)" stroke-width="2" stroke-linecap="round"></path>
                            <path d="M7.33333333,48.6666667 L33.6179819,48.6666667" id="Stroke-19" stroke="url(#linearGradient-1)" stroke-width="2" stroke-linecap="round"></path>
                            <mask id="mask-3" fill="white">
                                <use xlink:href="#path-2"></use>
                            </mask>
                            <g id="Clip-22"></g>
                            <polygon id="Stroke-5" stroke="#FB7020" stroke-width="2" mask="url(#mask-3)" points="7.33333333 29.4406667 23.4406667 29.4406667 23.4406667 13.3333333 7.33333333 13.3333333"></polygon>
                            <polyline id="Stroke-6" stroke="#FB7020" stroke-width="2" mask="url(#mask-3)" points="19.02 18 19.02 25.0193333 12 25.0193333 12 18"></polyline>
                            <path d="M28.6666667,13.3333333 L43.7373333,13.3333333" id="Stroke-10" stroke="url(#linearGradient-1)" stroke-width="2" mask="url(#mask-3)"></path>
                            <path d="M28.6666667,19.3333333 L43.7373333,19.3333333" id="Stroke-11" stroke="url(#linearGradient-1)" stroke-width="2" mask="url(#mask-3)"></path>
                        </g>
                    </g>
                </g>
            </g>
        </g>
    </g>
</svg>