<?xml version="1.0" encoding="UTF-8"?>
<svg width="86px" height="70px" viewBox="0 0 86 70" version="1.1" xmlns="http://www.w3.org/2000/svg" xmlns:xlink="http://www.w3.org/1999/xlink">
    <!-- Generator: Sketch 44.1 (41455) - http://www.bohemiancoding.com/sketch -->
    <title>icon/insert-form@3x</title>
    <desc>Created with Sketch.</desc>
    <defs>
        <linearGradient x1="0%" y1="-314.997361%" x2="1770.712%" y2="1201.14891%" id="linearGradient-1">
            <stop stop-color="#0068F2" offset="0%"></stop>
            <stop stop-color="#0F4098" offset="100%"></stop>
        </linearGradient>
    </defs>
    <g id="Desktop" stroke="none" stroke-width="1" fill="none" fill-rule="evenodd">
        <g id="Gioithieu_Huongdanmothe" transform="translate(-918.000000, -672.000000)">
            <g id="dangkyonline" transform="translate(0.000000, 560.000000)">
                <g id="process" transform="translate(705.000000, 95.000000)">
                    <g id="icon/insert-form" transform="translate(213.000000, 17.000000)">
                        <g stroke-width="1" fill-rule="evenodd" transform="translate(26.326531, 0.578512)"></g>
                        <path d="M12.9041537,21.9681983 L10.4809429,21.9681983 C10.002385,21.9681983 9.61392245,21.5846446 9.61392245,21.1114215 L9.61392245,18.7146446 C9.61392245,18.242 10.002385,17.8584463 10.4809429,17.8584463 L12.9041537,17.8584463 C13.3827116,17.8584463 13.7705891,18.242 13.7705891,18.7146446 L13.7705891,21.1114215 C13.7705891,21.5846446 13.3827116,21.9681983 12.9041537,21.9681983 Z" id="Stroke-1" stroke="url(#linearGradient-1)" stroke-width="2" stroke-linejoin="round"></path>
                        <path d="M20.7241279,21.9681983 L18.300917,21.9681983 C17.8223592,21.9681983 17.4338966,21.5846446 17.4338966,21.1114215 L17.4338966,18.7146446 C17.4338966,18.242 17.8223592,17.8584463 18.300917,17.8584463 L20.7241279,17.8584463 C21.2026857,17.8584463 21.5905633,18.242 21.5905633,18.7146446 L21.5905633,21.1114215 C21.5905633,21.5846446 21.2026857,21.9681983 20.7241279,21.9681983 Z" id="Stroke-3" stroke="url(#linearGradient-1)" stroke-width="2" stroke-linejoin="round"></path>
                        <path d="M28.544102,21.9681983 L26.1208912,21.9681983 C25.6423333,21.9681983 25.2538707,21.5846446 25.2538707,21.1114215 L25.2538707,18.7146446 C25.2538707,18.242 25.6423333,17.8584463 26.1208912,17.8584463 L28.544102,17.8584463 C29.0226599,17.8584463 29.4105374,18.242 29.4105374,18.7146446 L29.4105374,21.1114215 C29.4105374,21.5846446 29.0226599,21.9681983 28.544102,21.9681983 Z" id="Stroke-5" stroke="url(#linearGradient-1)" stroke-width="2" stroke-linejoin="round"></path>
                        <path d="M36.3640762,21.9681983 L33.9402803,21.9681983 C33.4623075,21.9681983 33.0738449,21.5846446 33.0738449,21.1114215 L33.0738449,18.7146446 C33.0738449,18.242 33.4623075,17.8584463 33.9402803,17.8584463 L36.3640762,17.8584463 C36.842634,17.8584463 37.2305116,18.242 37.2305116,18.7146446 L37.2305116,21.1114215 C37.2305116,21.5846446 36.842634,21.9681983 36.3640762,21.9681983 Z" id="Stroke-7" stroke="url(#linearGradient-1)" stroke-width="2" stroke-linejoin="round"></path>
                        <path d="M44.1837578,21.9681983 L41.7605469,21.9681983 C41.2819891,21.9681983 40.8941116,21.5846446 40.8941116,21.1114215 L40.8941116,18.7146446 C40.8941116,18.242 41.2819891,17.8584463 41.7605469,17.8584463 L44.1837578,17.8584463 C44.6623156,17.8584463 45.0501932,18.242 45.0501932,18.7146446 L45.0501932,21.1114215 C45.0501932,21.5846446 44.6623156,21.9681983 44.1837578,21.9681983 Z" id="Stroke-9" stroke="url(#linearGradient-1)" stroke-width="2" stroke-linejoin="round"></path>
                        <path d="M52.003732,21.9681983 L49.5805211,21.9681983 C49.1019633,21.9681983 48.7135007,21.5846446 48.7135007,21.1114215 L48.7135007,18.7146446 C48.7135007,18.242 49.1019633,17.8584463 49.5805211,17.8584463 L52.003732,17.8584463 C52.4822898,17.8584463 52.8701673,18.242 52.8701673,18.7146446 L52.8701673,21.1114215 C52.8701673,21.5846446 52.4822898,21.9681983 52.003732,21.9681983 Z" id="Stroke-11" stroke="url(#linearGradient-1)" stroke-width="2" stroke-linejoin="round"></path>
                        <path d="M59.8237061,21.9681983 L57.4004952,21.9681983 C56.9219374,21.9681983 56.5334748,21.5846446 56.5334748,21.1114215 L56.5334748,18.7146446 C56.5334748,18.242 56.9219374,17.8584463 57.4004952,17.8584463 L59.8237061,17.8584463 C60.3022639,17.8584463 60.6901415,18.242 60.6901415,18.7146446 L60.6901415,21.1114215 C60.6901415,21.5846446 60.3022639,21.9681983 59.8237061,21.9681983 Z" id="Stroke-13" stroke="url(#linearGradient-1)" stroke-width="2" stroke-linejoin="round"></path>
                        <path d="M28.544102,29.8142727 L26.1208912,29.8142727 C25.6423333,29.8142727 25.2538707,29.430719 25.2538707,28.9574959 L25.2538707,26.560719 C25.2538707,26.0880744 25.6423333,25.7045207 26.1208912,25.7045207 L28.544102,25.7045207 C29.0226599,25.7045207 29.4105374,26.0880744 29.4105374,26.560719 L29.4105374,28.9574959 C29.4105374,29.430719 29.0226599,29.8142727 28.544102,29.8142727 Z" id="Stroke-15" stroke="#FB7020" stroke-width="2" stroke-linejoin="round"></path>
                        <path d="M36.3640762,29.8142727 L33.9402803,29.8142727 C33.4623075,29.8142727 33.0738449,29.430719 33.0738449,28.9574959 L33.0738449,26.560719 C33.0738449,26.0880744 33.4623075,25.7045207 33.9402803,25.7045207 L36.3640762,25.7045207 C36.842634,25.7045207 37.2305116,26.0880744 37.2305116,26.560719 L37.2305116,28.9574959 C37.2305116,29.430719 36.842634,29.8142727 36.3640762,29.8142727 Z" id="Stroke-17" stroke="url(#linearGradient-1)" stroke-width="2" stroke-linejoin="round"></path>
                        <path d="M44.1837578,29.8142727 L41.7605469,29.8142727 C41.2819891,29.8142727 40.8941116,29.430719 40.8941116,28.9574959 L40.8941116,26.560719 C40.8941116,26.0880744 41.2819891,25.7045207 41.7605469,25.7045207 L44.1837578,25.7045207 C44.6623156,25.7045207 45.0501932,26.0880744 45.0501932,26.560719 L45.0501932,28.9574959 C45.0501932,29.430719 44.6623156,29.8142727 44.1837578,29.8142727 Z" id="Stroke-19" stroke="#FB7020" stroke-width="2" stroke-linejoin="round"></path>
                        <path d="M52.003732,29.8142727 L49.5805211,29.8142727 C49.1019633,29.8142727 48.7135007,29.430719 48.7135007,28.9574959 L48.7135007,26.560719 C48.7135007,26.0880744 49.1019633,25.7045207 49.5805211,25.7045207 L52.003732,25.7045207 C52.4822898,25.7045207 52.8701673,26.0880744 52.8701673,26.560719 L52.8701673,28.9574959 C52.8701673,29.430719 52.4822898,29.8142727 52.003732,29.8142727 Z" id="Stroke-21" stroke="url(#linearGradient-1)" stroke-width="2" stroke-linejoin="round"></path>
                        <path d="M36.3640762,37.6603471 L33.9402803,37.6603471 C33.4623075,37.6603471 33.0738449,37.2767934 33.0738449,36.8035702 L33.0738449,34.4067934 C33.0738449,33.9341488 33.4623075,33.550595 33.9402803,33.550595 L36.3640762,33.550595 C36.842634,33.550595 37.2305116,33.9341488 37.2305116,34.4067934 L37.2305116,36.8035702 C37.2305116,37.2767934 36.842634,37.6603471 36.3640762,37.6603471 Z" id="Stroke-23" stroke="#0068F2" stroke-width="2" stroke-linejoin="round"></path>
                        <path d="M44.1837578,37.6603471 L41.7605469,37.6603471 C41.2819891,37.6603471 40.8941116,37.2767934 40.8941116,36.8035702 L40.8941116,34.4067934 C40.8941116,33.9341488 41.2819891,33.550595 41.7605469,33.550595 L44.1837578,33.550595 C44.6623156,33.550595 45.0501932,33.9341488 45.0501932,34.4067934 L45.0501932,36.8035702 C45.0501932,37.2767934 44.6623156,37.6603471 44.1837578,37.6603471 Z" id="Stroke-25" stroke="url(#linearGradient-1)" stroke-width="2" stroke-linejoin="round"></path>
                        <path d="M52.003732,37.6603471 L49.5805211,37.6603471 C49.1019633,37.6603471 48.7135007,37.2767934 48.7135007,36.8035702 L48.7135007,34.4067934 C48.7135007,33.9341488 49.1019633,33.550595 49.5805211,33.550595 L52.003732,33.550595 C52.4822898,33.550595 52.8701673,33.9341488 52.8701673,34.4067934 L52.8701673,36.8035702 C52.8701673,37.2767934 52.4822898,37.6603471 52.003732,37.6603471 Z" id="Stroke-27" stroke="#0068F2" stroke-width="2" stroke-linejoin="round"></path>
                        <path d="M59.8237061,29.8142727 L57.4004952,29.8142727 C56.9219374,29.8142727 56.5334748,29.430719 56.5334748,28.9574959 L56.5334748,26.560719 C56.5334748,26.0880744 56.9219374,25.7045207 57.4004952,25.7045207 L59.8237061,25.7045207 C60.3022639,25.7045207 60.6901415,26.0880744 60.6901415,26.560719 L60.6901415,28.9574959 C60.6901415,29.430719 60.3022639,29.8142727 59.8237061,29.8142727 Z" id="Stroke-29" stroke="#FB7020" stroke-width="2" stroke-linejoin="round"></path>
                        <path d="M67.6436803,21.9681983 L65.2204694,21.9681983 C64.7419116,21.9681983 64.353449,21.5846446 64.353449,21.1114215 L64.353449,18.7146446 C64.353449,18.242 64.7419116,17.8584463 65.2204694,17.8584463 L67.6436803,17.8584463 C68.1222381,17.8584463 68.5101156,18.242 68.5101156,18.7146446 L68.5101156,21.1114215 C68.5101156,21.5846446 68.1222381,21.9681983 67.6436803,21.9681983 Z" id="Stroke-31" stroke="url(#linearGradient-1)" stroke-width="2" stroke-linejoin="round"></path>
                        <path d="M75.4636544,21.9681983 L73.0398585,21.9681983 C72.5618857,21.9681983 72.1734231,21.5846446 72.1734231,21.1114215 L72.1734231,18.7146446 C72.1734231,18.242 72.5618857,17.8584463 73.0398585,17.8584463 L75.4636544,17.8584463 C75.9422122,17.8584463 76.3300898,18.242 76.3300898,18.7146446 L76.3300898,21.1114215 C76.3300898,21.5846446 75.9422122,21.9681983 75.4636544,21.9681983 Z" id="Stroke-33" stroke="url(#linearGradient-1)" stroke-width="2" stroke-linejoin="round"></path>
                        <path d="M71.5698435,39.6975785 L71.5698435,34.0160083 L73.8192993,34.0160083 C75.0619116,34.0160083 76.0687551,35.0116281 76.0687551,36.2403884" id="Stroke-35" stroke="#0068F2" stroke-width="2" stroke-linecap="round" stroke-linejoin="round"></path>
                        <path d="M85.0513088,44.1993884 C84.9407374,48.4121157 84.2346014,52.5936033 82.9270503,56.6079008 C82.5046558,57.9055041 82.302234,58.9265785 82.302234,58.9265785 L72.6392272,58.9265785" id="Stroke-37" stroke="#0068F2" stroke-width="2" stroke-linecap="round" stroke-linejoin="round"></path>
                        <path d="M71.5698435,34.0158347 L71.5698435,28.1063306 C71.5698435,26.8781488 70.563,25.8819504 69.3203878,25.8819504 C68.0783605,25.8819504 67.070932,26.8781488 67.070932,28.1063306 L67.070932,44.574843 L65.5194218,40.5842645 C65.1233537,39.5655041 64.1340612,38.8932727 63.030102,38.8932727 C61.5569864,38.8932727 60.362932,40.0740165 60.362932,41.5307107 C60.362932,44.2017025 61.0714082,46.8304628 62.4579388,49.1225289 C62.9891497,50.0007107 63.6262517,50.9037686 64.3745102,51.7310413 C67.1387959,54.7861653 67.8706735,58.9265785 67.8706735,58.9265785" id="Stroke-39" stroke="#0068F2" stroke-width="2" stroke-linecap="round" stroke-linejoin="round"></path>
                        <path d="M76.0689891,41.3590661 L76.0689891,35.6774959 L78.3184449,35.6774959 C79.5610571,35.6774959 80.5679007,36.6731157 80.5679007,37.901876 L80.5679007,43.288405" id="Stroke-41" stroke="#0068F2" stroke-width="2" stroke-linecap="round" stroke-linejoin="round"></path>
                        <path d="M80.5678422,38.5182231 L82.817298,38.5182231 C84.0599102,38.5182231 85.0667537,39.5144215 85.0667537,40.7426033 L85.0667537,44.1997934" id="Stroke-43" stroke="#0068F2" stroke-width="2" stroke-linecap="round" stroke-linejoin="round"></path>
                        <polygon id="Stroke-45" stroke="#0068F2" stroke-width="2" stroke-linecap="round" stroke-linejoin="round" points="66.1035782 68.762562 83.5469524 68.762562 83.5469524 61.9164463 66.1035782 61.9164463"></polygon>
                        <path d="M80.3207823,65.3393884 C80.3207823,64.9836033 80.0288503,64.6949256 79.6690544,64.6949256 C79.3092585,64.6949256 79.0173265,64.9836033 79.0173265,65.3393884 C79.0173265,65.6951736 79.3092585,65.9838512 79.6690544,65.9838512 C80.0288503,65.9838512 80.3207823,65.6951736 80.3207823,65.3393884 Z" id="Stroke-47" stroke="#0068F2" stroke-width="2" stroke-linecap="round" stroke-linejoin="round"></path>
                        <polyline id="Stroke-48" stroke="url(#linearGradient-1)" stroke-width="2" stroke-linejoin="round" points="80.5678422 32.133124 80.5678422 13.9198182 5.37634558 13.9198182 5.37634558 32.133124"></polyline>
                        <path d="M24.5214082,55.5371901 L61.2861156,55.5371901" id="Stroke-49" stroke="url(#linearGradient-1)" stroke-width="2" stroke-linecap="round" stroke-linejoin="round"></path>
                        <path d="M14.3744612,39.6975785 L14.3744612,34.0160083 L12.1250054,34.0160083 C10.8823932,34.0160083 9.87554966,35.0116281 9.87554966,36.2403884" id="Stroke-50" stroke="#0068F2" stroke-width="2" stroke-linecap="round" stroke-linejoin="round"></path>
                        <path d="M0.892995918,44.1993884 C1.00415238,48.4121157 1.71028844,52.5936033 3.01725442,56.6079008 C3.44023401,57.9055041 3.64207075,58.9265785 3.64207075,58.9265785 L13.3050776,58.9265785" id="Stroke-51" stroke="#0068F2" stroke-width="2" stroke-linecap="round" stroke-linejoin="round"></path>
                        <path d="M14.3744612,34.0158347 L14.3744612,28.1063306 C14.3744612,26.8781488 15.3813048,25.8819504 16.623917,25.8819504 C17.8665293,25.8819504 18.8733728,26.8781488 18.8733728,28.1063306 L18.8733728,44.574843 L20.424883,40.5842645 C20.820951,39.5655041 21.8102435,38.8932727 22.9142027,38.8932727 C24.3873184,38.8932727 25.5813728,40.0740165 25.5813728,41.5307107 C25.5813728,44.2017025 24.8728966,46.8304628 23.486366,49.1225289 C22.9551551,50.0007107 22.3180531,50.9037686 21.5697946,51.7310413 C18.8055088,54.7861653 18.0736313,58.9265785 18.0736313,58.9265785" id="Stroke-52" stroke="#0068F2" stroke-width="2" stroke-linecap="round" stroke-linejoin="round"></path>
                        <path d="M9.87560816,41.3590661 L9.87560816,35.6774959 L7.62615238,35.6774959 C6.38354014,35.6774959 5.3766966,36.6731157 5.3766966,37.901876 L5.3766966,43.288405" id="Stroke-53" stroke="#0068F2" stroke-width="2" stroke-linecap="round" stroke-linejoin="round"></path>
                        <path d="M5.37640408,38.5182231 L3.1269483,38.5182231 C1.88433605,38.5182231 0.877492517,39.5144215 0.877492517,40.7426033 L0.877492517,44.1997934" id="Stroke-54" stroke="#0068F2" stroke-width="2" stroke-linecap="round" stroke-linejoin="round"></path>
                        <polygon id="Stroke-55" stroke="#0068F2" stroke-width="2" stroke-linecap="round" stroke-linejoin="round" points="2.39805442 68.762562 19.8414286 68.762562 19.8414286 61.9164463 2.39805442 61.9164463"></polygon>
                        <path d="M5.62352245,65.3393884 C5.62352245,64.9836033 5.91545442,64.6949256 6.27525034,64.6949256 C6.63504626,64.6949256 6.92697823,64.9836033 6.92697823,65.3393884 C6.92697823,65.6951736 6.63504626,65.9838512 6.27525034,65.9838512 C5.91545442,65.9838512 5.62352245,65.6951736 5.62352245,65.3393884 Z" id="Stroke-56" stroke="#0068F2" stroke-width="2" stroke-linecap="round" stroke-linejoin="round"></path>
                        <path d="M42.9599837,0.867710744 L57.1839156,0.867710744 C58.3990313,0.867710744 59.3836435,1.84192562 59.3836435,3.04291736 C59.3836435,4.2444876 58.3990313,5.21870248 57.1839156,5.21870248 L28.7354667,5.21870248 C27.520351,5.21870248 26.5357388,6.19233884 26.5357388,7.39390909 C26.5357388,8.59490083 27.520351,9.5691157 28.7354667,9.5691157 L40.7725415,9.5691157 C41.9870721,9.5691157 42.9722694,10.5433306 42.9722694,11.7443223 L42.9722694,13.9201074" id="Stroke-57" stroke="#FB7020" stroke-width="2" stroke-linejoin="round"></path>
                    </g>
                </g>
            </g>
        </g>
    </g>
</svg>