<?xml version="1.0" encoding="UTF-8"?>
<svg width="62px" height="63px" viewBox="0 0 62 63" version="1.1" xmlns="http://www.w3.org/2000/svg" xmlns:xlink="http://www.w3.org/1999/xlink">
    <!-- Generator: Sketch 44.1 (41455) - http://www.bohemiancoding.com/sketch -->
    <title>icon/store access@3x</title>
    <desc>Created with Sketch.</desc>
    <defs>
        <linearGradient x1="0%" y1="0%" x2="209.559563%" y2="186.992386%" id="linearGradient-1">
            <stop stop-color="#0068F2" offset="0%"></stop>
            <stop stop-color="#0F4098" offset="100%"></stop>
        </linearGradient>
        <polygon id="path-2" points="0 0 0 29.4918919 32.8432432 29.4918919 32.8432432 4.5475569e-15 0 4.5475569e-15"></polygon>
        <linearGradient x1="0%" y1="-23.495206%" x2="156.915657%" y2="163.560902%" id="linearGradient-4">
            <stop stop-color="#0068F2" offset="0%"></stop>
            <stop stop-color="#0F4098" offset="100%"></stop>
        </linearGradient>
    </defs>
    <g id="Desktop" stroke="none" stroke-width="1" fill="none" fill-rule="evenodd">
        <g id="Gioithieu_Huongdanmothe" transform="translate(-735.000000, -987.000000)">
            <g id="mothe-ungdungdidong" transform="translate(114.000000, 987.000000)">
                <g id="process" transform="translate(584.000000, 0.000000)">
                    <g id="icon/store-access" transform="translate(37.000000, 0.000000)">
                        <g id="Page-1" stroke-width="1" transform="translate(0.167568, 0.167568)">
                            <path d="M26.864028,17.744836 L20.1157034,21.6025527 L16.456244,16.5054054 L20.1157034,11.4082581 L26.864028,15.2656524 C27.3076086,15.5194379 27.5833958,15.9941272 27.5833958,16.5054054 C27.5833958,17.0163613 27.307931,17.4913729 26.864028,17.744836 L26.864028,17.744836 Z M7.70350575,28.6975052 L15.1016469,18.3920736 L18.1947028,22.7003019 L7.70350575,28.6975052 Z M3.48691105,30.7973404 C3.28575241,30.777837 3.08830101,30.7192463 2.91204542,30.6170552 C2.47346154,30.3623026 2.20089802,29.889064 2.20089802,29.3819765 L2.20089802,3.6285925 C2.20089802,3.12142449 2.47346154,2.64826647 2.91236779,2.39359447 C3.08765627,2.29156448 3.28349582,2.23079781 3.48465446,2.21032734 L13.7469691,16.5054054 L3.48691105,30.7973404 Z M18.1947028,10.3101865 L15.1016469,14.6184954 L7.70350575,4.31298322 L18.1947028,10.3101865 Z M27.956458,13.3547259 L5.42959101,0.478235339 C4.88212679,0.165295025 4.25946986,0 3.62883428,0 C2.99013946,0 2.36014862,0.169405238 1.80768767,0.490163015 C0.69261114,1.13683648 0,2.33967815 0,3.62891487 L0,29.3819765 C0,30.6712133 0.69261114,31.873652 1.8073653,32.5206478 C2.35982625,32.8414056 2.98981709,33.0108108 3.62851191,33.0108108 C4.25882512,33.0108108 4.88180442,32.8451934 5.42959101,32.5322531 L27.9558133,19.6557626 C29.0834623,19.0110233 29.7838909,17.8039908 29.7838909,16.5054054 C29.7838909,15.2064976 29.0837846,13.9994651 27.956458,13.3547259 L27.956458,13.3547259 Z" id="Fill-1" fill="url(#linearGradient-1)"></path>
                            <path d="M55.7214527,5.55460304 L5.14550253,56.7072213" id="Path-2" stroke="#FB7020" stroke-width="2"></path>
                        </g>
                        <circle id="Oval" fill="#FFFFFF" cx="45.6621622" cy="16.8405405" r="2.5972973"></circle>
                        <circle id="Oval-Copy" fill="#FFFFFF" cx="18.1810811" cy="44.8243243" r="2.5972973"></circle>
                        <g id="Page-1" stroke-width="1" transform="translate(29.156757, 32.675676)">
                            <mask id="mask-3" fill="white">
                                <use xlink:href="#path-2"></use>
                            </mask>
                            <g id="Clip-2"></g>
                            <path d="M32.8432432,18.0733625 C32.8432432,18.48233 32.5077563,18.8145761 32.0968168,18.8145761 L28.1546847,18.8145761 C28.1114659,18.5860919 28.040664,18.3574477 27.921672,18.1430438 C27.8189572,17.9605604 27.5595642,17.4685514 27.198178,16.7826188 C26.676345,15.7930007 25.9271122,14.3773747 25.1249584,12.8863874 L32.0964961,12.8863874 C32.5075157,12.8863874 32.8429225,13.2195135 32.8429225,13.6266409 L32.8429225,18.0733625 L32.8432432,18.0733625 Z M31.0964499,29.4918919 C30.8518106,28.7128376 28.9825773,28.6613167 28.145624,27.4884952 C27.3061849,26.3190337 28.0000111,25.7169427 28.2915576,25.4386976 C31.6855566,23.5397027 31.0964499,29.4918919 31.0964499,29.4918919 L31.0964499,29.4918919 Z M26.7841114,24.6690034 L25.6123125,22.8306497 C25.3702391,22.4477627 25.4958062,21.9755141 25.888945,21.7740704 L27.0058183,21.2034199 C27.3995183,21.0037362 27.8925655,21.1658192 28.1020844,21.5658265 L29.0263574,23.3317789 C29.2365981,23.7312263 29.0933907,24.2441157 28.7141236,24.4697198 L27.9154177,24.9441285 C27.5363912,25.1724527 27.0265055,25.0481304 26.7841114,24.6690034 L26.7841114,24.6690034 Z M24.2357255,20.5840485 C23.4570654,20.1961214 19.5791601,11.3081984 18.5856889,8.98943591 C17.5908546,6.67035338 14.5874285,0.497680184 15.5590096,0.017351376 C16.2500293,-0.326974938 18.7313018,4.5337542 20.5911536,7.45148771 C22.4485198,10.3700212 26.3327596,17.8942392 26.8107323,18.7511349 C27.2861391,19.6102707 26.3531261,20.3261238 25.8340996,20.5406077 C25.3147523,20.7551717 25.0140649,20.9686156 24.2357255,20.5840485 L24.2357255,20.5840485 Z M13.0682755,18.8148961 L16.4971543,12.8863874 L18.4713475,12.8863874 L21.2557931,18.8148961 L13.0682755,18.8148961 Z M6.21364507,25.5403794 L4.26847821,24.4312391 C3.91270487,24.2284354 3.78737836,23.774107 3.99441166,23.4206606 L13.0013224,7.84317489 C13.2054691,7.4890884 13.6662826,7.36492612 14.0214947,7.57036989 L15.9665012,8.67655017 C16.3222745,8.88183394 16.4444739,9.33656228 16.2405677,9.68944875 L7.23405785,25.2678144 C7.02983096,25.6212609 6.56909768,25.7424631 6.21364507,25.5403794 L6.21364507,25.5403794 Z M5.61002513,27.1787295 L3.09683971,28.8776406 C2.75846616,29.1070048 2.51919916,28.9616422 2.56618658,28.5569947 L2.90167354,25.6500614 C2.94834023,25.245254 3.27725216,25.079651 3.63326604,25.2821347 L5.57835272,26.391035 C5.93356478,26.5941588 5.94839869,26.9500853 5.61002513,27.1787295 L5.61002513,27.1787295 Z M0,18.0733625 L0,13.6266409 C0,13.2195135 0.335567143,12.8863874 0.746185862,12.8863874 L8.62154981,12.8863874 L5.19291156,18.8148961 L0.746185862,18.8148961 C0.335567143,18.8148961 0,18.48233 0,18.0733625 L0,18.0733625 Z" id="Fill-1" fill="url(#linearGradient-4)" mask="url(#mask-3)"></path>
                        </g>
                    </g>
                </g>
            </g>
        </g>
    </g>
</svg>